<?xml version="1.0" encoding="UTF-8"?>
<svg id="Layer_1" xmlns="http://www.w3.org/2000/svg" baseProfile="tiny" version="1.2" xmlns:xlink="http://www.w3.org/1999/xlink" viewBox="0 0 680.5 481.9">
  <!-- Generator: Adobe Illustrator 29.2.1, SVG Export Plug-In . SVG Version: 2.1.0 Build 116)  -->
  <path d="M532.5,57.7c.3,0-9.4-5.1-12.8-6.7-3.4-1.6-3.2.4-1.4,4,2.7,5.4,10.2,15.9,15.1,20.6,4,3.8,9.6,6.5,9.6,6.5,0,0-21-23.7-10.5-24.3Z" fill="#f7f0d0"/>
  <path d="M489,39.9c0,0-8.2-2.4-13.7-3.8-5.5-1.3-7.9-1.8-5.5.9,4.9,5.5,20,17.1,20,17.1l5.9-1.5s-15-10.8-6.7-12.9Z" fill="#f7f0d0"/>
  <path d="M510.8,48.3c0,0-8.1-4.5-15.5-6.2-1.3-.3-2,.8.9,4.5,2.9,3.7,13.3,14.1,19.2,18.6,1.6-.2,2.4-.3,4.1-.4-3.8-4.6-15.4-16-8.6-16.4h0Z" fill="#f7f0d0"/>
  <path d="M417.1,34.5c-.2.9,11.6,5.1,20.1,5.6-6.7-1.6-13.4-6.6-14.7-6.5-1.8.1-5.3.5-5.4,1h0Z" fill="#f7f0d0"/>
  <path d="M381,39.2c0,.9,11.9,4.2,20.4,4-6.8-1.1-15.3-5.4-16.5-5.2-1.8.3-3.9.7-3.9,1.2Z" fill="#f7f0d0"/>
  <path d="M355.8,47.6c0,.9,11.9,4.2,20.4,4-6.8-1.1-15.3-5.4-16.5-5.2-1.8.3-3.8.7-3.9,1.2Z" fill="#f7f0d0"/>
  <path d="M328.5,62.2c0,.8,10.9,2,18.1.6-6,0-13.9-2.5-14.9-2.2-1.5.5-3.2,1.1-3.2,1.5Z" fill="#f7f0d0"/>
  <path d="M607.5,323c-.5-.7-11.6,5-17.7,11,5.7-3.8,14.9-6.5,15.6-7.5,1.1-1.4,2.4-3.1,2.1-3.5Z" fill="#f7f0d0"/>
  <path d="M621,297.3c-.5-.7-11.6,5-17.7,11,5.7-3.8,14.9-6.5,15.6-7.5,1.1-1.4,2.4-3.1,2.1-3.5h0Z" fill="#f7f0d0"/>
  <path d="M628.4,273.9c-.5-.5-9.3,6-13.7,11.9,4.4-4.1,11.8-7.7,12.4-8.6.8-1.4,1.6-3,1.3-3.3h0Z" fill="#f7f0d0"/>
  <path d="M628.7,253.3c-.5-.5-4.4,2.8-8.8,8.7,4.4-4.1,7-4.5,7.5-5.4.8-1.4,1.6-3,1.3-3.3h0Z" fill="#f7f0d0"/>
  <path d="M550.2,40.7c-12.1-6.4-19.7-23.5-20.9-29.6,0,0-1.6-.2-1.7-.2-3.1,19.6.9,33.8,6.9,42.2,7.6,4.3,22.2,8.1,24.7,8.8-1.8-4.1-6.6-11-9-21.1h0Z" fill="#f7f0d0"/>
  <path d="M522.5,27c-8.5-5.5-19.9-13.3-28-25,1.8,17.8,9.1,31.2,18.6,41.6,5.2,2.2,9.9,4.2,14.9,6.7-3.2-7.4-4.9-14.8-5.5-23.2h0Z" fill="#f7f0d0"/>
  <path d="M491.8,13.5c-6.6-1-15.7-5.9-22.4-13.1,0,0-1.2.1-1.1.4,6.4,18.4,17.7,28.9,26.2,35.8,3.8,1.2,8.4,3.1,12,4.5-6.5-7.8-12.1-17.5-14.8-27.6h0Z" fill="#f7f0d0"/>
  <path d="M327.7,35.3c-8,3.2-14.1,5.7-23.1,8.6-.5.2,0,1.3,0,1.3,23,12,41.1,4.6,52-2.1-9.4-.4-20.3-2-28.9-7.7Z" fill="#f7f0d0"/>
  <path d="M354,23.6c-8.1,2.5-15.3,4.2-25,5.7-.6.1-1.5,1.2-1.5,1.2,23.9,12.9,33.2,9.8,49.9,4-8.5-2.2-16.5-5.9-23.5-10.9Z" fill="#f7f0d0"/>
  <path d="M381.3,16.2c-9.5.8-14.4.9-26.3.3l-1.4,1.1c15.7,12.2,28.7,13.9,30.8,14.2,2.6.3,14.6-.8,19.8-1.6-7.5-3.2-17.1-8.6-23-14.1Z" fill="#f7f0d0"/>
  <path d="M409.1,10.9c-10.9-.2-18.6-.4-28.5-3.1-.5-.1-1.4.6-1.4.6,9,9.2,22.5,17.2,31.8,20.4,7-.8,12-1.2,19.2-1.2-8-3-16.9-9.3-21-16.6Z" fill="#f7f0d0"/>
  <path d="M441.2,11.5c-12-1.8-21.8-3.7-31.1-8.3,0,0-1.3.2-1.1.5,8,12.9,20.6,19.5,28.6,23.3,7,.2,13.9.7,20.7,1.6-6.1-4.4-13-11.2-17.2-17.1Z" fill="#f7f0d0"/>
  <path d="M467.8,11.2c-8.9-1.1-17.6-5.4-26.7-11.2,0,0-1.6,0-1.3.6,7.3,17.9,25.5,28.9,25.8,29.1,7,1.1,13.8,2.6,20.5,4.4-7.4-6.5-13.3-13-18.2-22.9Z" fill="#f7f0d0"/>
  <path d="M619.3,91.4c.9-3.6,2.6-7.7,4.8-11.8,1.5-2.9,5.1-7.5,6.5-8.7-1.8-3.8-4.8-12.3-5.2-25.7l-.8-.7s-2.4,1.8-3.6,6.8c-1.2,5-1.8,11.7-1.2,21.6-12-.7-16.8-19.3-18.7-31.2-1-6.2,0-8.9,0-8.9h-1.4c-1.8,1.7-4.7,4.7-5.4,16.8-.7,12,5.3,27.6,5.3,27.6l.8.5v-.4c0-2.6,2.3-3.8,5.1-3.8s5.8,1.3,6.1,4.9c.2,2.1-1.3,4.6-3.3,5.2-1.4.4-3.5.5-5-.4-1.2-.7-2.4-1.8-2.4-1.8l-.4.2s2.2,1.3,3.5,6.6c0,0,5.6.2,9.4,1.2,3.7,1.1,6,2,6,2Z" fill="#f7f0d0"/>
  <path d="M463.9,33.9c0,0-6-.9-11.8-1.5-5.1-.5-9.9-.7-9.9-.7-3.1-.2,20.5,14.6,25.6,17.9,3.2-1.5,4.6-2.2,5-2.4-2.8-2.4-13.3-12.1-8.9-13.3Z" fill="#f7f0d0"/>
  <path d="M438.9,47.9s-7.9,3.2-14.4,3.3h-.6c-7.4,0-17.5-2.8-17.5-2.8,0,0-5.3,5.2-10.1,6.3-5.6,1.3-15.7-.2-16,0-.5.3-2.4,4.2-6.6,5.8-5.5,2.1-17,3.3-17.1,3.4,0,0,0,4.4-3.9,6.6-5.6,3.2-15.4,6.2-20.9,6.1.6,5.7-6.2,10.7-11.5,13.9l1.4,1c8.8-5.4,10.5-8.5,13.1-13.5.4,0,.8-.2,1.2-.2,3.2-.7,12.6-2.6,17.4-5.4,3.3-1.9,6.5-6.2,7.6-7.6,5.5-.7,9.9-1.6,13.1-2.9,3.7-1.4,7.8-4.9,9.2-5.8.2,0,.6,0,1,0,2.5,0,8.4,1,12.6,0,4.3-1,9.4-4.1,11.1-5.1,2.1.4,9.2,1.7,15.6,1.7s.4,0,.7,0c5.9,0,12.5-2.5,14.4-3.2l19.8,5.1c.5-.4,4.5-2.4,5.2-2.8l-25.1-4h0Z" fill="#f7f0d0"/>
  <path d="M500.5,62.2c-6.1-1.6-13.8,1.2-22.4,4.1,6.5-4.9,9.9-6.9,14.1-8.2,1.2-.4,5.6-1.5,8.9-1,0,0,5.9,5.5,10.6,9.4,0,0-2.4.1-5.2.8-2.8.7.7-2.4-6-5Z" fill="#f7f0d0"/>
  <path d="M520.2,84.7c-4.5-2.5-17-5-28.5-4.5,8-7.6,16.1-10,21.1-10.9,1.2-.2,6.5-.9,10.5-.3,0,0,2.4,4,8.8,9.7l-2.5.7s-7-3.3-9.8-3.9c-8.6-1.8-19.5,2.1-16.1,2.1,14,.1,18.1,7.4,16.5,6.9Z" fill="#f7f0d0"/>
  <path d="M479.6,57.8c2.2-8.4-12.4-2.4-18.8,1.3,7.1-8.6,17.1-10.1,17.1-10.1,0,0,5.6,5,10.4,7.3,0,0-5.6,1.6-8.8,1.5h0Z" fill="#f7f0d0"/>
  <path d="M543.7,63.1c-3.8-1.7-5.4-2.8-7-3.3-1.7-.5-1.6,1.8-.4,5.1,1.9,4.9,8.2,15.8,10.8,18.2,1.6,1.4,2.6,1.1,2.6,1.1-5.9-10.6-6-21.1-6-21.1h0Z" fill="#f7f0d0"/>
  <path d="M591.6,57.2c-2.5-2.5-5.7-5.7-7.3-7.5-1,2.8-3.6,4.8-6.7,4.8s-6.3-2.5-6.3-6.4,2.8-6.7,6.4-7.1c0,0,0,0,0,0-6.8-2.9-16.1-9.8-17.2-25.6l-1.2-.3c-10,14.9-3.4,36.6,5.7,47.9,9.2,2.8,23.8,7.3,32.3,14.7-.7-3.2-4.6-9.1-5.8-20.6Z" fill="#f7f0d0"/>
  <path d="M552.1,88.3c-3.7-1.7-30-7.6-47.5,9.8,11.1-1.4,36.4-1.4,32.7,10.6,1.1-1,2.6-1.6,4.3-1.6,3.6,0,6.5,3.1,6.5,5.1,0,2.8-2.6,4.4-5.2,5.3-4.2,2-12.5,1.8-12.1,2,11.6,5.8,22.7,3.8,22.7,3.8,5.6-10.2,15.5-12.8,15.5-12.8-3-1-16-20.3-17-22.3ZM538.7,106.9s0-.9-.4-2.2c-1.1-3.5-3.6-10-22.1-10.5,0,0,40.7-5.5,36,17.8,0,0,0-4.8-2.5-6.7-2.4-1.8-6.8-2-11,1.6Z" fill="#f7f0d0"/>
  <path d="M566.4,74.9c-3-.6-9-1-9-1l-2.3-1.9s17.2-.3,31,6.3c5.8,2.8,12.5,6.2,12.5,6.2l-1.6-3.4s-11.6-8.7-26.1-12.9c-9.2-2.7-23.4-2.9-23.4-2.9,0,0,.7,8.9,4.8,16.7,4.1,7.7,10.2,15.5,10.2,15.5,0,0-7-12.3-4.5-11.1,1.1.5,6.7,8.2,10.6,13.4,4,5.2,8.6,9,8.6,9l3.9-.6s-5.5-2.7-12.9-12.7c-7.7-10.5-9.3-19.6-9.3-19.6l3.3,2.8s1.3,5.1,3.5,8.8c2.1,3.7,6.5,9.2,8.7,11.8,2.8,3.3,5.4,4.8,6.8,5.4,1.8.7,13.7-3,13.7-3,0,0,.7-4.3.5-5.9-.3-4.2-1.6-5.8-1.1-6.4s4-.3,4-.3c0,0-8.7-5.3-14.6-8.2-5.8-2.8-11.3-4.7-17.3-5.8ZM588.1,87.8c1.8.9,3.5,1.2,4.2,3.6.8,2.3.2,8.2.2,8.2,0,0-7.9,3.4-10.7,2.1-3.5-1.6-11.4-11-13.7-14.3-3.1-4.3-3.6-7.6-3.6-7.6,0,0,5.6.4,10.3,2.2,2.8,1.1,5.6,2.2,5.6,2.2,0,0-8.5-1.4-9.5-.7s-.4,1,.6,1.9c1.1,1,12.7,9.4,13.9,10.2,2,1.3,4.5,1.5,5.3,1.3.8-.3,1.1-3.6.5-4.6-1.9-3.3-5.8-5.3-7.2-6.1,0,0,2.9,1.1,4.1,1.7h0Z" fill="#f7f0d0"/>
  <path d="M599.3,346.2s9.1-8.9,19.5-14.4c10.4-5.6,24.4-7.6,24.4-7.6l8.2,3.2v1.3s-5.3.2-18.1,3.5c-13.1,3.4-31.1,13.8-34.8,17.3-3.7,3.5-11.7,12.9-11.7,12.9,0,0,13.2-8,20.8-10.1,4.9-1.4,21.2-3.8,21.2-3.8l7.6,4,.6.3.5,1.6s-19.8-.4-34.4,4.3c-18.3,6-32,22.4-32,22.4,0,0,11.2-4.9,15.5-6.2,13.2-4.1,28.2-1.3,28.2-1.3l8.2,4.5-.5,1.9s-24.3-3-37.6.2c-13.3,3.2-25.1,8.4-25.1,8.4l-8.2,6.8s2.9-3.5-.5-5c-3.5-1.6-20.9,1.3-20.9,1.3l4.5-6.6s3.7.5,12-2.2c3.8-1.2,10.8-3.7,17.1-4.3,8.5-.8,4.2,3.6,4.2,3.6,0,0,2.4-1.5,5.6-4.2,1.2-1,.5-3.1-3.4-2.9-6.8.4-19.3,4.3-19,3.9,2.1-2.9,1.8-4.8,3-6.1,4.4-4.7,12.4-7.7,17.4-9.6,5.1-1.9,12.8-3.9,11.2.1-1.6,4-4.5,7.5-4.5,7.5,0,0,8-9.6,9.3-12.5s-10.8,0-15.9,2.3c-5,2.4-1.4-3.4,5.2-8.2,6.7-4.8,15.3-10.6,17.5-11.4,2.1-.8,7.5-.8,4.9,5.6h0Z" fill="#f7f0d0"/>
  <path d="M509.4,400.9l1.2-.8s3.9-2.2,6.4-3.2c3.1-1.3,10.7-3.4,14.6-4.1,4.4-.9,12.6-.2,14.7.3,2.1.5,2.5,3.9-3.6,8.2-6,4.2-9.7,5.8-9.7,5.8,0,0,3.8-5-.3-5.9-5-1.2-23.3-.2-23.3-.2h0Z" fill="#f7f0d0"/>
  <path d="M640.4,132.4s-3.6-2-3.3-7.2c.3-5.2,2.6-6.1,2.6-6.1,0,0,3.2,2.2,3.8,5.5.6,3.3-1.2,7-.7,8.4.5,1.4-2.4-.7-2.4-.7Z" fill="#f7f0d0"/>
  <path d="M232.7,231.8c-.2-.2.2,10.7.6,14.4.3,3.7,1.9,2.6,4.2-.8,3.4-5,10.2-21.2,11.8-27.8,1.3-5.4,1.1-9.7,1.1-9.7,0,0-11.8,32.5-17.6,23.8h0Z" fill="#f7f0d0"/>
  <path d="M239,278.3c0,0,2,8.3,3.6,13.8,1.6,5.4,2.4,7.8,3.6,4.3,2.3-6.9,4.8-25.9,4.8-25.9l-4-6.6s-2,20.6-8,14.5Z" fill="#f7f0d0"/>
  <path d="M235.4,254.2c0,0,.1,9.3,2.4,16.5.4,1.3,1.7,1.3,3.4-3,1.8-4.3,8.5-25.8,8.5-25.8l-2.9-6s-7.6,23.9-11.4,18.3h0Z" fill="#f7f0d0"/>
  <path d="M273.4,346c.8-.3-1.4-12.6-5.2-20.2,1.9,6.6,1,14.9,1.7,16,1,1.5,3.1,4.4,3.6,4.2Z" fill="#f7f0d0"/>
  <path d="M295.6,374.9c.8-.4-2.3-12.5-6.7-19.7,2.4,6.4,3,15.9,3.8,16.9,1.1,1.4,2.5,3,3,2.8h0Z" fill="#f7f0d0"/>
  <path d="M315,390.8c.8-.4-1.8-10.7-6.2-17.9,2.4,6.4,2.5,14.1,3.3,15.1,1.1,1.4,2.5,3,3,2.8Z" fill="#f7f0d0"/>
  <path d="M213.6,263.7c-.5,10.1-2.5,19.6-8.6,32.5,14.5-10.4,20.6-24.5,24.9-38,2.1-7.8.6-12.5.3-18.1-4,7.3-10.2,16.8-16.5,23.5Z" fill="#f7f0d0"/>
  <path d="M216.3,290.8c2.4,6.2,2.7,16.5-.1,26,0,0,.7,1,.9.8,12.8-14.7,15.2-27.8,16.9-38.7.5-5-.6-10.7-1.2-14.6-3.5,9.5-9.1,19.3-16.6,26.6h0Z" fill="#f7f0d0"/>
  <path d="M294,405s2.4-4.5,7.6.7,8.9,16.3,9.9,19.7c.2.6,1.8.7,1.8.7-.8-27.1-7.8-37.4-21.2-48.9,2.4,8.5,2.8,19.3,2,27.9Z" fill="#f7f0d0"/>
  <path d="M273.9,388.3c6.9,0,10.4,8.7,13.9,20l1.7.6c2.7-19.7-2.3-31.8-3.1-33.8-1-2.4-8-12.2-11.3-16.4,1,8.1.6,21.7-1.2,29.6Z" fill="#f7f0d0"/>
  <path d="M255.4,363.6c7.3.8,10.1,14.5,11.6,26.3,0,.5,1.2.9,1.2.9,3.5-12.4,3.5-30.2,1.6-39.8-3.4-10.6-7.2-13.6-10.3-17.2,1.4,8.4.7,21.1-4.1,29.8h0Z" fill="#f7f0d0"/>
  <path d="M239.7,338.7c5.7,3,7.9,17.5,8.6,27.9,0,0,.8,1,1,.7,7.2-13.4,5.7-26.8,5-35.7-1.1-7.8-5.5-13.1-8.1-19.4-.8,7.5-3.4,20-6.5,26.6Z" fill="#f7f0d0"/>
  <path d="M226.4,312.7c3.5,8.3,4.1,17.9,3.7,28.7,0,0,.8,1.4,1.1.9,11.9-15.3,10.3-34.8,10.3-35.1,0-8.8-2.7-15.1-4.4-21.8-1.9,9.6-4.6,18-10.7,27.3Z" fill="#f7f0d0"/>
  <path d="M245.8,302.2c0,0,2.2,5.7,4.6,11,2.1,4.7,4.4,9,4.4,9,1.4,2.8,2.4-25.1,2.7-31.1-3-2-4.2-2.9-4.6-3.1-.7,3.7-3.9,17.6-7.1,14.4Z" fill="#f7f0d0"/>
  <path d="M274.2,320.4s6.7,5.2,10,10.8c.1.2.2.4.3.5,3.7,6.4,6.3,16.6,6.3,16.6,0,0,7.1,2,10.5,5.6,3.9,4.2,7.7,13.7,7.9,13.9.5.2,4.9,0,8.4,2.8,4.6,3.7,11.4,13.1,11.5,13.1,0,0,3.1-1.6,4.9-.9l-.4-3.5s-1.2-.7-5.2.3c-3.3-4.5-7-8.2-9.7-10.3-3.1-2.5-8.1-4.3-9.6-5.1-.1-.2-.3-.5-.5-.9-1.3-2.2-3.3-7.8-6.2-11-3-3.2-8.2-6.1-10-7.1-.7-2-3.1-8.8-6.4-14.4l-.3-.6c-3-5-8.4-9.6-10-10.9l-5.5-19.7c-.6-.3-4.3-2.7-5-3.1l9.1,23.7h0Z" fill="#f7f0d0"/>
  <path d="M262.4,280.2c2,9.5,4.1,11.9,10.5,15.6-11-1.8-19-12-19-12,0,0,.9-7.2.4-12.5,0,0,6.5,6,8.1,8.8h0Z" fill="#f7f0d0"/>
  <path d="M231.8,219.4c.5,4.2.3,6.1.6,7.7s2.4.5,4.6-2.2c3.3-4.1,9.6-14.9,10.3-18.4.4-2.1-.3-2.8-.3-2.8-6.2,10.4-15.3,15.7-15.3,15.7h0Z" fill="#f7f0d0"/>
  <path d="M250.9,244.5l-2.7,13.5s2.2,6.6,6.1,10.6c4.4,4.6,14.2,6.1,14.2,6.1,0,0-4.3-3.4-6.9-9.5-2.7-6.4-3.5-11.7-3.5-11.7,0,0-4-2.2-7.2-9.1h0Z" fill="#f7f0d0"/>
  <path d="M250.9,225.7l2.9-6s1.9,8.2,6.5,17.9c5.6,11.8,13.7,17.4,13.7,17.4,0,0-10.4-2.4-16-10.6-6-8.8-7.1-18.7-7.1-18.7h0Z" fill="#f7f0d0"/>
  <path d="M268.6,92c-9.6,1.5-26.9,11.8-28.5,33.9-2.7,35.6,27.2,44.7,30.8,47.2,23.7,16.2,7.7,33.2,7.1,34.8,1.1-1.9,13-7.9,4.8-31-5.1-14.5-23.2-20-25.9-41.7-.4-3-.2-10.1.5-13.7.2-1-.5,4.5-2.7,6-2.8,2-3.5-1.7-3.5-4.6,0-8.6,8.8-19.1,9.9-19.9,13.9-9.6,24.1-8.3,31.4.3,0,0-2.7-14.6-23.9-11.3Z" fill="#f7f0d0"/>
  <path d="M278.5,107.9c-4.2,4.4-5.6,14.5-2,21.8,4.5,9.2,12.9,14,31,2.7,9-5.7,9.7,11,9.8,11.6,0-.8.2-26.3-10.3-25.5-2.7.2-5.8,5.1-14.7,5.1s-5.3-.5-7.6-5.1c-.5-.9.5,3.6-1.5,4.9-1.4,1-3.2,0-3.5-.9-1.1-3.1-1.1-7.1,1.5-12.2,2.7-5.5,10.1-3.8,10.8-3.6,0,0-7.8-4.7-13.6,1.4h0Z" fill="#f7f0d0"/>
  <path d="M271.6,103.1c-6,3.5-14.2,14.4-10,34.4,2.9,13.7,15.9,25.6,26.9,25.9,16.5.4,18.7-17.5,18.8-16.5,0-1.4-6.2,7.4-16.1,4.8-4.4-1.1-13.3-3.6-14.9-18.6,0-.8-.8,4.1-2.4,5.7-2,2-5.2.6-6.4-4-4.4-16.8,0-23,4.9-28.2,5.1-5.3,12.6-4.9,20.1-1.6,0,0-9.5-8.6-21-2h0Z" fill="#f7f0d0"/>
  <path d="M293.3,87c5.1-1.2,11.5-2.6,10.1-13.3-2.2,8.3-7.1,8.8-12,8.9,0,0,1.9,4.4,1.9,4.4h0Z" fill="#f7f0d0"/>
  <path d="M231.3,146.8c-2.5,1.7-4.7,2.8-7.8,3.7.1,2.2-2.6,5.6-6.9,8.5-10.9,7-17.6,7.5-21.4,10.4-14.3,11.1-12.6,26.2-10.6,31.3-.2-8.5,3.4-21.2,11.6-23.4,1.4-.4,2.8-.4,4.4-.1s3.3,1,5.2,2.1c2.4,1.4,16.9-10.6,24.2-18.4,7.7-8.2,8.5-10.6,9.1-16.4,0,0-1.3,3.6-2.9,5.1-2.2,2.2-6.7,6.2-6.2,5.7,9.1-10.9,8.9-20.1,8.7-20.2-.8,3.7-1.7,7.9-7.3,11.8h0Z" fill="#f7f0d0"/>
  <path d="M266,174.9c-2.9,0-5.5,1.6-7.6,4.1-2,2.6-3.9,5.1-4.9,16.9-1.4,16,10.9,36.4,23.5,39.2-7.2-7.8-13-15.1-14.3-27,2.7,4.4,10.1,8.7,12.7,9.5-.2,0-3.3-2.3-5.7-7.9-2.7-6.5-3.6-14.9-3.6-14.9,0,0,1.2,8.6-.9,9.8-3.7,2-7.2-4.7-5.2-15.7,2.9-15.9,14.8-10.6,14.8-10.6,0,0-5.9-3.3-8.8-3.3h0Z" fill="#f7f0d0"/>
  <path d="M200.9,150.3c-3.1,3-8.3,10.5-20.3,3.6,4.5,6.9,10.7,7.6,15.8,8,4.6.4,10.5-1.1,14.1-3,5.2-2.7,9.3-5.8,8.8-7.6-6,.8-6,.9-10,.9-2.4,0-8.3-1.9-8.4-1.9Z" fill="#f7f0d0"/>
  <path d="M228.1,216.9s1.9,10.2-.5,17.7c-1,3.2-7.1,13.6-11,18.6-3.7,4.7-14.4,14.4-15.9,15.6s-1.6-.3-1.6-.3c0,0,3.9-7.6,4.9-10.1.2-.6,1-3,1-3,0,0,5.6-2.9,7.5-4.7,2.5-2.3,5-6.6,5-6.6,0,0-7.8,5.2-12.3,7.1-3,1.2-5.5,2.1-7.1,2.3l-.9-.8s4-3.9,6.8-8.2,6-11.2,6-11.2c0,0,4.8-3,8-6.7,7.6-8.7,8.4-16.7,10.3-9.6h0Z" fill="#f7f0d0"/>
  <path d="M203.1,186.1s-1.4,7.6-4.1,14.5c-2.7,6.9-9.4,14-9.4,14v1.8s7.3-1.6,14.7-6.6c5.9-3.9,8.9-10.5,8.9-10.5-2.6,9.1-2,7.4-3.4,11.9-2,6.6-4.6,9.2-6.2,9.6-1.6.4-2.8-3-2.8-3,0,0-3,8.9-5.7,12.4s-5.5,7.6-5.5,7.6v1.2s12.9-6.2,17.2-9.6c7.8-6,10.4-11.9,13.1-23.6,2.7-11.8,0-30.5,0-30.5,0,0-5.3,7.4-16.8,10.7h0Z" fill="#f7f0d0"/>
  <path d="M253.8,169.1s-2,8.1-4.7,13.7c-.6,1.3-3.7,7.6-7.3,12.4-2.7,3.6-8.6,9.6-8.6,9.6,0,0-4.2-10.1-5.2-16.8-1.4-9.4-.3-13.7-.3-13.7l1.1-2.1s-.2,2.9.4,9.3c.7,7,5.3,18.1,5.3,18.1,0,0,9.2-10.2,12.4-17.6,2-4.7,4.7-14.3,4.7-14.3,0,0-1.3-2.2-4.2-5.9-2.9-3.7-4.9-6.9-6.5-6.9s-3,1.8-6.2,5.6c-2.6,3.1-7.3,7.5-8,8.2-.7.7-3.4,3.2-3.4,3.2,0,0-.7,6.8,1.2,21,1.5,11.2,7.4,20.5,7.4,20.5,0,0,13.7-11.7,18.1-21.5,3.1-7,6.9-18.9,6.9-18.9l-3.1-3.7h0ZM232.1,165.7c.4-.6,7.3-7.4,7.8-8,.5-.6,1.6-.3,1.6-.3,0,0,6.8,7.6,7.3,9.2.5,1.9-1.5,6-2.4,9.2-1.2,4.1-3.8,9-5.5,11.8-1.9,3.3-5.4,6.9-5.4,6.9,0,0-2.7-4.9-3.6-10.4-.8-4.9-1.1-13.9-1.1-15.2s1.1-2.7,1.4-3.4h0Z" fill="#f7f0d0"/>
  <path d="M241.4,160.4c.4.4,5,6.7,5.2,7.2.2.4.1,2.5-1.7,2.8-2.4.4-5.4-3.8-5.9-1-.4,2.8-2.8,20.9-3,22-.3,1.1-1.5-2-1.9-4.1-.4-2.1-3.1-16.8-1.4-19.1,1.7-2.3,7.1-9.5,8.8-7.7h0Z" fill="#f7f0d0"/>
  <path d="M268.5,179s6.4-.4,9.7,4.1c3.3,4.5,2.9,12.6,2.9,12.6,0,0-.7-9.6-6.6-10.4-6-.8-7.8,2.3-7.8,2.3,0,0,1.7-2.3,3.3-3.1,1.6-.8,7.2-3.6-1.5-5.6h0Z" fill="#f7f0d0"/>
  <path d="M285.6,79.7s.9,7.1,4.3,13.6c3.1,5.8,5.7,8.7,8.8,11.9,3.6,3.6,9.6,2.1,11.8.8,2.3-1.3,6.4-7.1,6.4-9.3s-2.5-7.3-2.5-7.3c0,0,4.7,4.4,5.8,5.9s3.2,5.2,3.5,7.2c.4,3.1.1,7.4-.8,9.1-1.6,2.8-13.7,1.9-21.9,3.9-4,1-7,2.2-7.8,4-1,2,.8,2.3.8,2.7,0,0-5.5-.4-6.9-3-3.6-6.8.4-11.7,2.6-11.7,4,0,4.3,3.1,4.3,3.1,0,0,1.1-5.9-1.2-10.8-1.8-3.8-2.9-4.2-4.6-7.7-1.7-3.4-2.5-12.2-2.5-12.2h0Z" fill="#f7f0d0"/>
  <path d="M290.7,85.7c3.2,7.5,8.5,12.9,11.3,15.1,3.2,2.4,5.5.6,7-.5,5.9-4.1,6.3-5.9,6.3-5.9,0,0,1.1.8.4,2.8-.7,2-4.1,5.6-8.7,6.7s-8.1-.5-12-5.7-8.6-16.7-8.4-22.9c.1-4,1.1-9.2,2.2-11.7.5-1.2,2.3-3.3,2.3-3.3,0,0-2.3,3.5-2.9,7.8-.6,4.3-.7,10.2,2.4,17.7h0Z" fill="#f7f0d0"/>
  <path d="M299.4,95.1s1.6,2.8,4.4,4.3c1.1.6,3.4.5,5.6-1.6,0,0-2.2,1.3-3,.5s2.2-3.9,2.7-6.3c.5-2.4.3-5.1.3-5.1,0,0,2.5,2.2,2.4,4.3,0,0-.1-2.6-.8-3.9-.7-1.3-3.2-2.9-3.2-2.9,0,0,1.1,2.3-.9,4.3-1.1,1.2-7.5,6.4-7.5,6.4Z" fill="#f7f0d0"/>
  <path d="M228.1,116.6c0,.9,0,1.8-.2,2.6.4-1.7.2-2.6.2-2.6Z" fill="#f7f0d0"/>
  <path d="M269.5,58.8s-4.9,2.9-5.9,4.9c-.9,2-.7,5.4-.5,6.5.1,1.1,1.9.8,4.4-2.7,2.5-3.4,2-8.8,2-8.8Z" fill="#f7f0d0"/>
  <path d="M295.2,43.6c-2-.8-8.3,5.2-8.5,4.9-.2-.3,4.8-7.6,4.6-7.9-.6-1.2-.9-2.3-2.5-2.2-3.5.2-17.5,8.8-19.5,10.8-.3.3-.6.5-.8.7,0,0-.2.9-.4,1.8,0,.5-.2,1.1-.2,1.4,1.5-1,5.4-3.5,5.4-3.5,0,0-14.4,11.6-16.5,17.8-1.7,5-.9,12.1-.4,14.8,2.1-2.3,4.9-5.9,5.2-8.8-1.7-5.3-.3-9.6.4-10.9,1.8-3.3,9.3-9.5,9.3-9.5,0,0,2.5,9.1-1.3,14.3-1.9,2.6-5.5,4.8-6.6,5.7-.7,4.5-4,8.3-4.6,8.9-.1.1-4.5,3.9-4.5,3.9,0,0-3.5-10.4,1.1-19.4,3-6,8-11.1,11.5-13.5-.3-.8.3-3.3-1-2.8-6.3,2.4-17.8,9.5-25.8,19.2,0,0,0,0,0,.1-6.4,10-7.6,12.8-9.8,19.3,0,0-.8,0-.8-.2,0-1,4.2-15.7,11-22.8-1.3-.9-3-3.1-4.9-3.1-.5,0-7.6,5.7-17.7,15.8-3.3,3.3-4,9.2-6,14.8-1.1,3-7.4,17-7.4,17,0,0,11.4-20.1,12.4-19.5.9.5-2.3,14.2-6.1,25.7-6.9,20.7-23,15.6-26.1,7.2,0,0-1.5,10.2,8.5,19,5.1,4.4,14,8.5,27.5,5,2.7-.7,5.4-1.8,7.9-3.4,8-5,8.7-9.4,9.1-15.6.1-2.1.3-4.4.6-7.1.5-3.3,3.2-13.4,7.5-19.3,3.9-5.4,10.9-12.1,19.1-14,15-3.2,21.6,4,21.6,4-5.3-20.5,3.2-37.9,6.2-35.9,2.4,1.6,3.1,3.8,3.2,3.7,1.8-3.5,2.9-7.7,6.9-9.6-3.3-4.6-4.9-5.7-7.5-6.8h0ZM226.1,90.3s1.1.9,5.6.4,7.3-11.7,7.3-11.7c0,0,.4,2.5.3,7.6-.1,5.1,5.2,5.4,5.2,5.4,0,0-4.8,5.8-11.7,5.4s-6.6-7.2-6.6-7.2ZM232.2,120.3c-.3,1.2-3,6-4.1,7.4-1.9,2.3-3.6,4.4-7.1,7.6,0,0,3.7-4.7,5.1-7.8,1.9-4.4,1.8-8,1.8-8.3-.7,3.3-2.9,10.4-13.5,18.7-20.6,12.1-28.1-9.2-28.1-9.2,9.2,12.8,17.6,11.6,21.8,8.6,8.7-6.2,12-19.3,13.5-24.2,3-9.8,2.5-22.3,2.6-21.1.5,3.8,3.6,12.6,14.3,9.7,4.8-2.8,11.9-7.2,11.9-7.1-13.2,10.8-17,23.1-18.1,25.8h0ZM274.8,81c-8.1,0-23.3,12.9-23.3,12.9,0,0,4.8-4.8,14.5-12.1,6.9-5.2,7.5-12.1,7.2-15.7-.2-1.4-.3-2.4-.3-2.4,0,0,.2.9.3,2.4.1.8.3,1.8.6,2.8.8,3,8.1,1.9,8.8,4.5.7,2.7,1.6,16.2,1.6,16.2,0,0-1.3-8.7-9.5-8.7Z" fill="#f7f0d0"/>
  <path d="M298.7,58.6l5-4.2s3.4,3,3.5,5.3c.2,2.3.5,7.6.5,7.6,0,0-1.6-6.2-2.8-7.4-1.2-1.2-1.1,3.4-1.1,3.4l-5.1-4.6Z" fill="#f7f0d0"/>
  <path id="spine_mouth" d="M617,137.5c1.5,11.9,9.5,8.4,9.5,8.6,2.9,23.5,9.5,30.3,13.1,38.6,3.6,8.3,4,16.5,1.6,25.8-2.3,9-17.6,25.3-7.5,46.7,0,0-6.8-8.8-6.2-21.1.4-10.3,8.1-23.3,8.1-34.6,0-17.1-8.2-21.3-12.4-34.7-5.1-16.6-6.1-29.3-6.1-29.3h0Z" fill="#f7f0d0"/>
  <path d="M495.3,393.3c7.3-6.2,15.2-13,22.6-24.9.4-.7,1.2-.6,1.2-.6,0,9.5-7.6,23.9-13.2,28.6-4.5,3.8-13.4,10.8-27,14.6,0,0,13.5-9.2,16.4-17.6h0Z" fill="#f7f0d0"/>
  <path d="M518,383.6c8.4-5.4,14.1-10,19.7-22.7l1.5-.3c.3,11.6-11.8,26.2-14.8,28.6-3.8,3-8.3,4.4-8.3,4.4,0,0-2.1-2-1.7-4,.5-2.1,3.5-6,3.5-6Z" fill="#f7f0d0"/>
  <path d="M335.6,402.5c-7.6-7.8-19.6-8.4-25.8-8.8,3.2,1.3,15.8,4,20.5,9.7,20.7,25.3,32.6,28.1,54.1,26.6,0,0-8.3.1-13.3-1.7-4.3-1.6-6-5.3-.3-5.2.9,0-11.7,3.6-35.3-20.6h0Z" fill="#f7f0d0"/>
  <path d="M370.1,440.8c-10.5-.7-21.2-6-32.7-18.1,0,0,.6,6,.7,6,18.8,14.3,32.1,12.5,32.1,12.8s0-.7,0-.7Z" fill="#f7f0d0"/>
  <path d="M504.9,403.5c-7.6,1.8-10.7,3.6-10.7,3.6,0,0,32-.8,29.8,5.7,2.5-2,5.7-4.1,5.7-4.1,1.2-.8,1.8-4,0-4.6-5.5-1.6-18.9-2.1-24.8-.7h0Z" fill="#f7f0d0"/>
  <path d="M531.9,417.4s9.5-1.6,17.4-.4c5,.8,12,3.4,17.1,7.5l15.1-3.1c-2.5-5.6-9.8-9.4-20.7-11.4-8.3-1.5-13.7,1.1-21,2.4l-7.9,4.9h0Z" fill="#f7f0d0"/>
  <path d="M663.4,214.7c.2,0-2.6-1.6-2.6-1.6-5.8-.2-15.1,8.8-18.4,15.6-3.9,8.1-5.3,18.3-5.1,23.6,0,0,2.7-12.6,7.9-22.1,4.7-8.5,10.5-13,18.2-15.5h0Z" fill="#f7f0d0"/>
  <path d="M664.6,242.4c.2,0-4.3-2.8-4.3-2.8-6.8.8-18.5,12.5-22.5,18.9-5.3,8.5-8.5,16.4-9.7,24,0,0,3.4-10.5,10-19,6-7.7,17.5-18.4,26.5-21.1h0Z" fill="#f7f0d0"/>
  <path d="M663.7,271.2s0-1.5-.8-1.8c-2.2-.9-7-1.2-7-1.2-7.4,3.4-22.7,16.7-27,23.1-5.6,8.3-7.8,14.4-9.2,21.9,0,0,4.3-11,11.2-19.3,6.2-7.5,24.7-20.8,32.9-22.6Z" fill="#f7f0d0"/>
  <path d="M658.3,300.4s.1-1.5-.7-1.9c-2.2-1.1-9-1.4-9-1.4-7.7,2.7-25.4,15-30,21-6.9,9-10.7,13.6-12.8,21,0,0,8.9-11.2,16.5-18.8,6.9-6.9,27.6-18.8,36-19.9h0Z" fill="#f7f0d0"/>
  <path d="M563.2,435.6c-1.9-2.7-4.2-4.9-7.1-6.7-.4-.3-8.5,1.8-8.9,1.5-.3-.2,7-2.7,6.7-2.9-6-3.1-12.5-2.8-23.6-3.8-1.5-.1-3.9.4-7.4,2.9l-7.6,4.9c8.9-.4,21.4,7,21.4,7,0,0,11.3-5,25.9-2,.5,0,0-1.1.6-1h0Z" fill="#f7f0d0"/>
  <path id="eye_solid" d="M401.1,404.9c-1.3-.4-4.1-.4-5.4.2-1.5.7-3.1,1.3-3.8,2.9,0,0,3.1,3,4.8,3.5,2.2.7,3.6.2,5.9-.9,1.8-.9,5.5-1.7,5.5-1.8-.6-.9-5.3-3.4-6.8-3.9h0Z" fill="#f7f0d0"/>
  <path d="M508.1,453.2l-9.2-1.1-.2-.5,7.5-.6c-1.8-2-4.5-4.5-8.8-6.5-1.4-.3-11,6.1-11,6.1,0,0,6,8.1,6,8.1,6,1.5,20.1,6.7,23.6,7.7-.9-2.1-2.5-5-3.8-6.5l-11.6-2-.4-.5,10.6.2c-.3-.5-1.9-3-2.7-4.3h0Z" fill="#f7f0d0"/>
  <path d="M520.5,447l-.6-.6,10.9-1.9c-1.2-1.3-2.5-2.5-3.8-3.7-.4-.3-6.8,1-6.8,1l-.5-.4s5.4-2.1,5.2-2.3c-4.3-3-6.9-4.1-9.6-4.5-1.4-.2-5.3.7-6.6,1.8-1.3,1.1-8.2,5.2-8.2,5.2,7,3.2,10.2,7.4,11.3,9.2,0,0,21,1.8,24.6,2-.9-1.5-1.4-2.7-3.2-5.2l-1.2-.4-11.4-.4h0Z" fill="#f7f0d0"/>
  <path d="M450.4,392.2c0,0-14.6,9.1-28.2,10.1-9.8.7-18.7-4.4-20.4-6-3.5-3.2-7.1-7.2-8.8-8.3-4-2.8-8-1.6-10.5.9-2.3,2.3-2.2,6.4-.8,9.8,1.2,2.9,4,4.2,7.2,4.6,2.5.3,3.1-.6,9.9-2.4,4.5-.2,6.2,5,14.3,7.5,5.5,1.7,29.6-2.2,29.6-2.2,0,0-23.3,5.5-23.7,6.9-.4,1.5,1,3,4.7,3.6,9.4,1.5,22.5-3.3,26.6-5.4,5.6-2.8,19.5-13.5,26.8-31.2.1-.3-.6-.7-.6-.7-12.6,9.6-18.6,10.6-26.2,12.8h0Z" fill="#f7f0d0"/>
  <path d="M410.2,381.5c-2.3-2-9.4-1.3-8.5-1.7,3-1.3,15.3,2.7,20.8-3.8-7.7,1.9-9.9.8-17.8-.5-5.1-.9-23.4,2-27.5,14.8-1.2,3.6.8,9.2,1.7,10.9,0,0,.1.6,1.2,2.1,0,.1-.8-.8,0-1.6s2.7.9,4.3,1.3c-4-3.2-4.5-5.2-4.8-7.4-1-6.5,2.2-11.6,10-12,6.6-.3,11.9,7.4,15.7,10.2,15.4,11.3,44.6,0,46.5-13.4,0-.2-.7-.3-.7-.5-16.9,15.9-31.9,9.4-40.7,1.5h0Z" fill="#f7f0d0"/>
  <path d="M499.8,374.1c-9.8,15.4-20.5,18.1-25.2,19.5-6.9,11.2-27,27.6-53.9,24.9-5.1-.5-8.8-4.8-10.1-6.4-.3-.4-6.9.8-9,1.4-3,.9-7.4,1.4-10.1-2-2.7-3.3-4.8-4.1-13-4.5-3.5-.2-11.9.4-12.5.8,5.1-2.4,2.4-8,2.4-8,1.1.7,12.1,6.4,11.4,5.8s-6.2-4.4-11.4-9.2c-7.2-6.6-14.1-14.3-14.1-14.3l16.3,11.2c-.7-1.9-2.7-6.6-1.7-8,2.6-3.6,8.4,1.3,8.4.4,1.6-4.5,4.7-9.2,17.2-13-4.2.6-9.2,1.9-12.6,3.2-3.9,1.5-6.1,3.1-6.8,3.6,0,0-12-6.3-18.1-8.3-7.9-2.7-28-.7-18.4,21.1,0,0,7.3,16.1,7.3,16-.4-14.6,3.3-15.5,5.9-15.5,7.6,0,12.5,16.2,12.6,16.2,16.7,0,33.9,3.9,33.9,24.5s3.5,7.5,9,7.5,6.4-3.2,8-5.5c-.5.1-1,.2-1.5.2-3.8,0-6.9-3.1-6.9-6.9s3.1-6.9,6.9-6.9,6.9,3.1,6.9,6.9-.1,1.4-.3,2c-.2.7,21.4,1.2,40.7-11.2,3.4-2.2,12.4-9.4,15.7-12.6-6.3,10-32.2,25-37.8,27.1-8.2,3-16.5,4.7-20.3,1-.2-.2-3.7,8.7,7,8.7,15.8,0,44.5-23.5,61.1-46.9.2-.2-3.9,8.9-3.9,8.9,12.5-12.3,15.2-23.5,17.5-31.4.1-.4-.8-.2-.8-.2h0Z" fill="#f7f0d0"/>
  <path d="M583.4,336.8s-.2-8.8,3.5-14.1c.1-.2.2-.4.4-.5,4.3-6,12.3-12.5,12.3-12.5,0,0-1-7.5.9-12,2.2-5.3,9.6-11.1,9.5-11.4,0-.6-2.3-6-1.2-10.3,1.4-5.7,7.6-13,7.5-13.1,0,0-3.4-7-3-11.4.6-6.4,3.8-10.4,5.2-13.8-3.1-4.4-3.9-14.5-3.5-21.2-.6.4-1.2.9-1.7,1.3-.6,9.8-.7,16.8,1.8,21.6-.2.4-.3.7-.5,1.1-1.3,3-3,6.8-3.5,12.4-.3,3.8.8,8.6,1.3,10.3-2.7,4.9-4.4,9-5.2,12.3-1,3.9-1.4,8.6-1.5,10.2-.1.2-.4.5-.6.8-1.5,2.1-4.5,6.4-6.2,10.4-1.7,4.1-2.4,10.4-2.6,12.4-1.6,1.5-6.7,6.5-10.4,11.8-.1.2-.2.4-.4.5-3.3,4.8-5.2,11.7-5.8,13.6l-7.4,10c-.5.5-.5,3.3-.3,3.8l11.2-12.4h0Z" fill="#f7f0d0"/>
  <path d="M620.9,182.4s7.5,12.2,8.2,20.7c.7,8.5.5,12.6-2,21.8-2.5,9.3-2,13.1-1.4,16.2.8,4.2,4.7,11.6,4.7,11.6,0,0-4.8-10.9-3.5-18.9,1.3-8,6.4-20.3,6.5-31.4,0-9.1-2.6-11.1-2.6-11.1,0,0,1.5,5.7-2,2.8-3.4-2.9-7.9-11.8-7.9-11.8h0Z" fill="#f7f0d0"/>
  <path d="M570.1,343.9s.3,8.3-1,12c-1.6,4.7-5.3,8.1-5.3,8.1,0,0-8.1,4.6-7.1,2.9.8-1.4,1.5-4.6,1.5-4.6,0,0,2.2-1,5.8-4.9,4-4.3,4.7-11.5,5-13.1.1-.5,1.1-.4,1.1-.4h0Z" fill="#f7f0d0"/>
  <path d="M554.2,353.4h1s.5,8.8-.7,12.9c-1.2,4.2-4.4,10.8-8.2,14-3.7,3.2-8.5,3.3-9.2,3.3h-1.4l-.6-.5,3.1-4.7-1.7.5.6-2s4.5-2,8-5.9c3.5-3.9,7.6-10.3,8.1-12.8.4-2.5,1.1-5,1.1-5h0Z" fill="#f7f0d0"/>
  <path d="M546.7,404.8s11.2-7.6,12.9-8.3c2.3-1,9.7-3.1,11.7-3.4,12.2-2.2,23.1.1,23.8.5.6.4,6.4,6,6.4,6l-.3.6s-6.8-2.7-13.6-3c-6.8-.3-13.3-.2-21.8,1-11.3,1.5-19,6.6-19,6.6h0Z" fill="#f7f0d0"/>
  <path d="M496.7,412.3c6.2-.2,17.9,2.8,17.9,2.8,0,0-8.8,4.8-7.1,3.3,1.7-1.5-15.1-1.4-15.1-1.4,0,0-3.6-.4-3.9-2.8-.1-1.6,5.1-1.7,8.1-1.8h0ZM476.5,435c-1.2,0-3.3-1.1-.9-3.7s17.9-8,17.9-8c.7-.4-.8-.7-2.4-.7s-14.5,1.2-16.3,1.3c-1.8,0-2.7.4-3.1.9-.4.5-3.5,6.1-3.9,7.1-.7,1.8-2.4.4-1.6-1.6,1.3-2.7,4-7.2,4.1-7.6.3-.5.8-1,1.6-1s7.6-.8,14.1-.9c7.1-.2,14.1-.2,14.6-.2.8,0,.6,1,0,1.5s-9.5,7.8-12.6,10c-2.6,1.9-8.6,5.6-11.1,6.9-.6.3-1.5.7-2.2.3-.2-.1-3.9-2.2-4.8-2.7,5-.2,7.8-1.5,6.5-1.5h0ZM473.7,441.7s1.9.3,3.9-.6,7.3-3.8,12.3-7.7c5.4-4.2,12.2-10.4,13.9-12.2,1-1,3.5-1.9,3.5-1.9,0,0-8.1,9.5-16.1,15.6-6.1,4.7-12,8.2-13.8,8.2-1.9,0-3.7-1.5-3.7-1.5h0ZM481,450.5c-.4-.7-.1-1.5.9-2.1,1-.7,5.7-3.7,14.6-10.8,11.1-8.8,15.5-20.3,16.4-20.9.8-.4,4.3-2.1,5.1-2.5,1.1-.5,1.2.6,1.2.6,0,0,2.5-1.7-.3-2.5-7.1-2.1-17.8-2.8-22.5-2.5-5.2.3-9.3.8-11.8,1.8-2.5,1-3.2,1.5-2.3,2.7,1.1,1.3,10.1,2.7,10.1,2.7,0,0-20.5.6-21.7,2.3-1.3,1.8-9.9,12.9-9.9,12.9,0,0-1.5,1.9-.2,3.2,3.4,3.4,7.4,5.8,10.5,7.9,2.1,1.4,7.1,3.3,7.1,3.3.6.5-3.4,1.8-8.3.5-3.7-1-20.2-7.7-20.2-7.7l-1.6.8s4.7,2.7,10.3,6c7.9,4.6,15.2,17.5,15.2,17.5l20,7.4s.1-.5-.2-1.3c-1.4-4.1-2.9-5.4-2.9-5.4l-13.4-2.5v-.4s11.7.7,11.7.7c0,0,.3-.4,0-.6-.3-.3-2.4-3.5-2.4-3.5l-9-.4-.3-.8,7.8-.7s-.8-1.5-1.9-2.6l-2.1-2.8h0Z" fill="#f7f0d0"/>
  <path d="M432.4,447.8c-1.5-.7,3.6-2.6,4.5-3s12.6-.2,17.1,3.2c2,1.5,4.8,5.2,5.2,6s3.3,5.2,3.3,5.2l-9.8-.3.4.5,10.3,1.5,2,3.7-9.7-.9.6.8,10,2.2s1.9,4,1.9,4.7-.3.8-.3.8l-27.2-9.2s-1-11.5-8.3-15.1h0Z" fill="#f7f0d0"/>
  <path d="M420.9,446.7c-10.9-3.3-24.2-.2-23.6-11,0-.1-2.8,5.7-6.6,2.4-1.8-1.6-4.1-3.8-5.1-5,0,0-.9.5-.9.6.6.6,3.9,6.1,2.9,8.6-1.1,2.8-3.9,5.5-7.4,6-2,.3-6.1.9-8.2-.8-3.2-2.5-2-5.3-2-5.3,0,0-2.9.2-5.9,2-17,10.3-16.9,21.7-18.8,30,21.6-20.9,92.1-18.9,78.7,6.2,0,.1,1.2,1.4,1.2,1.4,17.1-12,6.7-31.8-4.4-35.1h0ZM360,463.6c-9.3,3.5-12,7.4-12,7.4,0,0,4.2-8.7,14.6-13.1,10.5-4.4,16.6-4.4,16.6-4.4,0,0-5.8,1.6-3.4,3.8,1.4,1.3,6,.9,11.1.8,3.7,0,5.5.4,5.5.4,0,0-15.6-1.2-32.4,5.2h0ZM425.6,479.8s1.8-4.8.5-9c-2-6.6-10.6-9.3-10.6-9.3,0,0,2.5-2.1,2.3-4.6-.2-2.5-10.3-5.3-10.3-5.3,0,0,10.4,1.8,15.5,5s7,9.8,6.6,15.1c-.4,5.3-4.1,8.2-4.1,8.2Z" fill="#f7f0d0"/>
  <path d="M311,398.1s12.2,1.7,19.5,12.1c5.1,7.3,6.6,20,6.6,20l-1,1.4s-1.9-6.7-9.1-13.7c-4.5-4.3-9.3,2.4-9.3,2.4,0,0,.2-5.9-1-11.6-1.2-5.7-5.6-10.6-5.6-10.6h0Z" fill="#f7f0d0"/>
  <path d="M613.8,200.9c-.4-.9-.5-1.8-.5-2.6,0-1.8.3-3.1.9-4.2.9-2.1,4.2-4.1,6.2-5.1.1-.1.2-.2.4-.3-3.3-1.1-7.6-2.3-9.6-9.6-2.4-8.5,3.5-12.9,5.3-13.9-1.9-.4-6.3-2.9-6.5-3.6-.2-.8,3.7-3.9,5.8-5.9-1.9-.4-7.7-3-7.7-3,0-.3,5.1-4.6,7.8-6.2-10.5-3.6-10.1-5.7-10.1-5.7-9.6.3-18.3-8.6-22.3-18.5-1.6-3.9-2.3-8.4-.6-12.1-.7,0-8.7-.7-16.6,5.3-7.9,5.9-12.1,9.6-13.8,20.1,7.4-10.8,27.8-10.8,30.2-4.6,2.3,5.8-.9,12.6-6.8,20.7,7.3-5.4,15.5-3.6,16.9-.4,1.5,3.3-2.4,4.3-6.2,4.3,15.7,17.6,14.8,29.5,13.6,35.7-.7,4.5-2.2,9-6.8,9.7-1.6.2-7.2-.8-8.5-4.3,0,0-1.1.3-1.1.3,1.3,10.5,8.1,13.2,13,13.2,6.6,0,11.5-2.2,11.9,7.8,2.8-3.6,7.9-8.5,17.4-11.8-.7.2-10.2.7-12.2-5.2ZM589.2,156.4s5.8,1.3,6.9-1.8c2.1-6.4-10.5-7.2-10.5-7.2,0,0,13.7-1.3,15.5,6.9,1.8,8.7-11.8,2-11.8,2h0Z" fill="#f7f0d0"/>
  <path d="M612,134.7s-4.1-5.2.8-8.4c4.9-3.2,9.5,3.5,6.7,6.2,0,0,5.3-5.3,2-9.5-4.9-6.1-11.1-1.4-11.1-1.4,0,0,6.4-1.5,3.7,1.2-2.8,2.8-6.9,7-2,11.9h0Z" fill="#f7f0d0"/>
  <path d="M680.5,167.7c-8.2,0-9.8,4.8-13.2,10.1-1.5-5.4.9-10.1,4.3-12-2.7-.5-5.5.5-6.9,1.2-3.9-6.8-2.5-17.2.3-24.7-1.6,1.8-3.8,3.8-5.3,4.9,1.1-3.1,3-8.2,4.2-11.3-1,.6-2.8,2.4-5.1,4.1,1.5-3.6,2.8-7.4,4.3-10.2-2.1,2.4-3.5,6.4-5.5,5.3,0,0-.9,2.8-3.5,2.8,0,0-1.2,0-1.2,0-17-1.2-19.8-8.2-19.9-14.5-.1-6.7,4.4-10.9,4.4-10.9,2.7,1.6,7.9,4.1,9,10.6.3,1.8-.1,5.1-1.5,8.9-.3.8.6,1.7.6,1.7l7.9,1.7.5-1.2c-2.7-2,2.6-3.8,2.6-8.8,0-8.3,3-10.6,2.5-11.2-6.2-6.6-3-21.3,3.2-28,0,0,0,0-.4-.5,0,0-.7,0-.7,0,0,0,.2-1.2,0-1.3-.5-.5-.8-.7-.8-.6-4,2.8-4.7,4-7.8,7.9-5.8,7.3-1.1,14.1-6.4,14.5,0,0-.2,0-.3,0-9.4-2.2,1-14.1,1-14.1,0,0-6.8-17.6.7-31.9-17.4,8-25.4,28.2-25.4,30.7,0,0,5.8-2.2,10.2,1.6,2.5,2.1,3.3,5.6,3.3,8.6,0,5.5-5.1,9.8-10.5,9.8s-10.5-4-10.5-9.5,1.1-5.4,4.7-7.6c-15.5-1.9-23.1,8.2-25,10.1-4.4,4.5-5.6,10.2-4.7,17.2,1.2,9.1,7.7,17.1,15.6,17.1s2-.1,3-.4c-3.1-1.9-5.2-5.3-5.2-9.2,0-6,4.9-10.9,10.9-10.9s10.9,4.9,10.9,10.9-1.2,6.8-3.5,9.9c14.6-2.7,7.4,9.5,7.4,9.5.3,0,4.9-2.1,6.7-.3,2.4,2.4.4,4.6-1.9,8.4.9,0,1.9-.2,2.8-.2,4.1,0,7.2,1.5,0,9.8,4.9,1.1,14.8,2.3,16.2,13.2.5,3.5-2,10.2-7.6,12,3.9,1.3,7.7,2.6,10,3.3,0,5.2-3.8,5.7-10.1,5.7,3,3.1,6.9,4.4,10.5,4.4s8-3,7.9-6c0,0-.9-8-.8-9.6,0-.2,4-5.9,4.2-5,.3,1.2.4,3.3-.5,5.9s-1.8,2.6-1.8,2.7c.2,1,.9,6.5,1,6.5,4.3-1.8,5-2,5-2l1.7,1.1c0-9.7-2.4-21.6,8.5-30.4h0ZM655.6,173.7c.2,4.8.5-5.4-10.7-7.6,0,0,4.2-6.9.7-9.9-3.5-3-9.4-2.1-9.4-2.1,0,0,3.4-1.6,3.5-4.6.2-3-2.7-4.8-4.8-4.8s-4.1,1.1-4.1,1.1c0,0,5.3-5.1.9-7.3-4.4-2.1-7.1-2.1-7.1-2.1,0,0,7-.3,12.8,1.6s11.5,8.3,11.7,12.9c.2,4.6-1.5,11.6-1.5,11.6,0,0,7.7.8,14.8,12,0,0-7.1-5.4-6.9-.6h0Z" fill="#f7f0d0"/>
  <path d="M7.4,186.2l-5.3-.7c-1.2-.8-1.2-3.5.2-4.2,9.3-.8,20.8-1.3,37.2-1.3s20.2.8,27.8,5c8,4.2,13.8,11.7,13.8,23.3s-12.5,24.5-20.8,27.8c-.8,1,0,2.7.8,4,13.3,21.5,22.2,34.8,33.5,44.3,2.8,2.5,7,4.3,11.5,4.7.8.3,1,1.7.2,2.3-1.5.5-4.2.8-7.3.8-14.2,0-22.7-4.2-34.5-21-4.3-6.2-11.2-17.7-16.3-25.2-2.5-3.7-5.2-5.3-11.8-5.3s-7.8.2-7.8,3.7v21c0,17.5.3,19.5,10,20.8l3.5.5c1,.8.7,3.7-.3,4.2-7.5-.3-13.2-.5-19.8-.5s-13,.2-20.8.5c-1-.5-1.3-3-.3-4.2l4.2-.5c9.7-1.2,10-3.3,10-20.8v-59.8c0-15.8-.5-18.7-7.3-19.5h0ZM28.9,235c.5.5,3,.8,11.5.8s12.3-.7,17.2-4.3c4.5-3.5,8.3-9.3,8.3-20.7s-8.2-25.7-26.7-25.7-10.8.7-10.8,5.3v39c0,3,0,4.8.5,5.5h0Z" fill="#f7f0d0"/>
  <path d="M140.9,285.2c4.5,0,9.8-1.8,13.5-5,2.2-2,3.3-4.5,3.3-9.7v-27.3c0-10.8-1.2-11.2-6.2-13.2l-2.2-.8c-1.2-.7-1.2-3,.2-3.7,6.7-.2,15.8-1.3,19.5-3,.8.2,1.3.5,1.5,1.2-.3,3.2-.5,8.3-.5,14.5v28c0,13.2.5,18.2,5.2,18.2s4.2-.3,6.5-.8c1,.8,1.2,4.2-.2,4.8-6.5,1.3-16.2,3-21.8,6.2-.8,0-1.7-.5-2-1.2v-6.8c0-1.5-.5-2.3-1.5-2.3-5,3.2-13.2,8.7-23,8.7-14.7,0-20.2-7.3-20.2-20.8v-27.8c0-10.5,0-12-5-14.2l-2-.8c-1-.8-.8-3.2.3-3.7,7.7-.2,14.2-1.7,17.8-3,1,.2,1.5.5,1.7,1.2-.3,2.8-.5,6.3-.5,14.5v27.8c0,11.5,2.8,19.2,15.5,19.2h0Z" fill="#f7f0d0"/>
  <path d="M293.6,185.2l-2.7-.3c-1.2-1.2-1-4.2.3-4.8,6.3.3,14.2.5,21.5.5h31.8c10.7,0,20.3-.2,22.5-.5.7,2.8,1.7,16,2.7,23.2-.7,1.3-4,1.7-5.3.7-2.7-9.7-5.2-13.7-10.5-15.2-3.8-1-8.8-1.5-13.3-1.5h-11.2c-7.2,0-7.2.3-7.2,9.8v28.2c0,4.3.2,4.5,4,4.5h8c14.5,0,17-.2,18.5-7.3l1.2-5.7c1.3-1.2,4.5-1.2,5.3.2-.2,4.5-.5,10.5-.5,16.7s.3,12.2.5,17.5c-.8,1.2-4,1.2-5.3.2l-1.2-6.7c-1.2-7-4-7.3-18.5-7.3h-8c-3.8,0-4,.3-4,4.5v21.2c0,8.5.3,14.5,2.8,17.3,2,2.3,4.8,3.5,18.8,3.7,21.2.2,24.8-4.5,30.7-18,1.5-1.2,4.3-.7,5.3,1-1,7-4.7,19.7-7,24.2-7.3-.3-21.7-.5-41.2-.5h-19c-7.3,0-17.5.2-25,.5-1.3-.7-1.5-3.7-.3-4.8l6.2-.7c7.8-.8,9.3-1.3,9.3-19v-62c0-17.7-1.5-18.3-9.3-19.3h0Z" fill="#f7f0d0"/>
  <path d="M385.9,260.8c1-1.7,3.8-1.8,5.2-.7,3,8.5,12,26.3,28.3,26.3s19.8-7.7,19.8-17.8-4.5-17.2-17-24.2l-7.2-4c-12.5-7-23.5-17.2-23.5-32.2s12.3-30.5,36.7-30.5,15,2,22.8,3.5c1.8,3.7,3.5,14.7,3.5,22.5-.8,1.5-3.8,1.7-5.3.5-2.5-8.7-8.3-19.8-22.5-19.8s-18.8,8.7-18.8,17.5,4.8,14.5,15.8,20.3l10.3,5.5c10.8,5.7,22.8,16,22.8,32.8s-14.5,32.5-38.7,32.5-24-5-27.3-7c-3-3.5-5.2-15-5-25.3h0Z" fill="#f7f0d0"/>
  <path d="M530.1,293.2c-37.7,0-59.3-26.5-59.3-56.2s24.7-59.2,59.7-59.2,58.3,27.7,58.3,58-25,57.3-58.7,57.3h0ZM531.8,286.5c19,0,34.3-14.2,34.3-47.7s-11.3-54.3-37.8-54.3-34.8,12.2-34.8,47.7,9.8,54.3,38.3,54.3Z" fill="#f7f0d0"/>
  <path d="M532.5,57.7c.3,0-9.4-5.1-12.8-6.7-3.4-1.6-3.2.4-1.4,4,2.7,5.4,10.2,15.9,15.1,20.6,4,3.8,9.6,6.5,9.6,6.5,0,0-21-23.7-10.5-24.3Z" fill="#f7f0d0"/>
  <path d="M489,39.9c0,0-8.2-2.4-13.7-3.8-5.5-1.3-7.9-1.8-5.5.9,4.9,5.5,20,17.1,20,17.1l5.9-1.5s-15-10.8-6.7-12.9Z" fill="#f7f0d0"/>
  <path d="M510.8,48.3c0,0-8.1-4.5-15.5-6.2-1.3-.3-2,.8.9,4.5,2.9,3.7,13.3,14.1,19.2,18.6,1.6-.2,2.4-.3,4.1-.4-3.8-4.6-15.4-16-8.6-16.4h0Z" fill="#f7f0d0"/>
  <path d="M417.1,34.5c-.2.9,11.6,5.1,20.1,5.6-6.7-1.6-13.4-6.6-14.7-6.5-1.8.1-5.3.5-5.4,1h0Z" fill="#f7f0d0"/>
  <path d="M381,39.2c0,.9,11.9,4.2,20.4,4-6.8-1.1-15.3-5.4-16.5-5.2-1.8.3-3.9.7-3.9,1.2Z" fill="#f7f0d0"/>
  <path d="M355.8,47.6c0,.9,11.9,4.2,20.4,4-6.8-1.1-15.3-5.4-16.5-5.2-1.8.3-3.8.7-3.9,1.2Z" fill="#f7f0d0"/>
  <path d="M328.5,62.2c0,.8,10.9,2,18.1.6-6,0-13.9-2.5-14.9-2.2-1.5.5-3.2,1.1-3.2,1.5Z" fill="#f7f0d0"/>
  <path d="M607.5,323c-.5-.7-11.6,5-17.7,11,5.7-3.8,14.9-6.5,15.6-7.5,1.1-1.4,2.4-3.1,2.1-3.5Z" fill="#f7f0d0"/>
  <path d="M621,297.3c-.5-.7-11.6,5-17.7,11,5.7-3.8,14.9-6.5,15.6-7.5,1.1-1.4,2.4-3.1,2.1-3.5h0Z" fill="#f7f0d0"/>
  <path d="M628.4,273.9c-.5-.5-9.3,6-13.7,11.9,4.4-4.1,11.8-7.7,12.4-8.6.8-1.4,1.6-3,1.3-3.3h0Z" fill="#f7f0d0"/>
  <path d="M628.7,253.3c-.5-.5-4.4,2.8-8.8,8.7,4.4-4.1,7-4.5,7.5-5.4.8-1.4,1.6-3,1.3-3.3h0Z" fill="#f7f0d0"/>
  <path d="M550.2,40.7c-12.1-6.4-19.7-23.5-20.9-29.6,0,0-1.6-.2-1.7-.2-3.1,19.6.9,33.8,6.9,42.2,7.6,4.3,22.2,8.1,24.7,8.8-1.8-4.1-6.6-11-9-21.1h0Z" fill="#f7f0d0"/>
  <path d="M522.5,27c-8.5-5.5-19.9-13.3-28-25,1.8,17.8,9.1,31.2,18.6,41.6,5.2,2.2,9.9,4.2,14.9,6.7-3.2-7.4-4.9-14.8-5.5-23.2h0Z" fill="#f7f0d0"/>
  <path d="M491.8,13.5c-6.6-1-15.7-5.9-22.4-13.1,0,0-1.2.1-1.1.4,6.4,18.4,17.7,28.9,26.2,35.8,3.8,1.2,8.4,3.1,12,4.5-6.5-7.8-12.1-17.5-14.8-27.6h0Z" fill="#f7f0d0"/>
  <path d="M327.7,35.3c-8,3.2-14.1,5.7-23.1,8.6-.5.2,0,1.3,0,1.3,23,12,41.1,4.6,52-2.1-9.4-.4-20.3-2-28.9-7.7Z" fill="#f7f0d0"/>
  <path d="M354,23.6c-8.1,2.5-15.3,4.2-25,5.7-.6.1-1.5,1.2-1.5,1.2,23.9,12.9,33.2,9.8,49.9,4-8.5-2.2-16.5-5.9-23.5-10.9Z" fill="#f7f0d0"/>
  <path d="M381.3,16.2c-9.5.8-14.4.9-26.3.3l-1.4,1.1c15.7,12.2,28.7,13.9,30.8,14.2,2.6.3,14.6-.8,19.8-1.6-7.5-3.2-17.1-8.6-23-14.1Z" fill="#f7f0d0"/>
  <path d="M409.1,10.9c-10.9-.2-18.6-.4-28.5-3.1-.5-.1-1.4.6-1.4.6,9,9.2,22.5,17.2,31.8,20.4,7-.8,12-1.2,19.2-1.2-8-3-16.9-9.3-21-16.6Z" fill="#f7f0d0"/>
  <path d="M441.2,11.5c-12-1.8-21.8-3.7-31.1-8.3,0,0-1.3.2-1.1.5,8,12.9,20.6,19.5,28.6,23.3,7,.2,13.9.7,20.7,1.6-6.1-4.4-13-11.2-17.2-17.1Z" fill="#f7f0d0"/>
  <path d="M467.8,11.2c-8.9-1.1-17.6-5.4-26.7-11.2,0,0-1.6,0-1.3.6,7.3,17.9,25.5,28.9,25.8,29.1,7,1.1,13.8,2.6,20.5,4.4-7.4-6.5-13.3-13-18.2-22.9Z" fill="#f7f0d0"/>
  <path d="M619.3,91.4c.9-3.6,2.6-7.7,4.8-11.8,1.5-2.9,5.1-7.5,6.5-8.7-1.8-3.8-4.8-12.3-5.2-25.7l-.8-.7s-2.4,1.8-3.6,6.8c-1.2,5-1.8,11.7-1.2,21.6-12-.7-16.8-19.3-18.7-31.2-1-6.2,0-8.9,0-8.9h-1.4c-1.8,1.7-4.7,4.7-5.4,16.8-.7,12,5.3,27.6,5.3,27.6l.8.5v-.4c0-2.6,2.3-3.8,5.1-3.8s5.8,1.3,6.1,4.9c.2,2.1-1.3,4.6-3.3,5.2-1.4.4-3.5.5-5-.4-1.2-.7-2.4-1.8-2.4-1.8l-.4.2s2.2,1.3,3.5,6.6c0,0,5.6.2,9.4,1.2,3.7,1.1,6,2,6,2Z" fill="#f7f0d0"/>
  <path d="M463.9,33.9c0,0-6-.9-11.8-1.5-5.1-.5-9.9-.7-9.9-.7-3.1-.2,20.5,14.6,25.6,17.9,3.2-1.5,4.6-2.2,5-2.4-2.8-2.4-13.3-12.1-8.9-13.3Z" fill="#f7f0d0"/>
  <path d="M438.9,47.9s-7.9,3.2-14.4,3.3h-.6c-7.4,0-17.5-2.8-17.5-2.8,0,0-5.3,5.2-10.1,6.3-5.6,1.3-15.7-.2-16,0-.5.3-2.4,4.2-6.6,5.8-5.5,2.1-17,3.3-17.1,3.4,0,0,0,4.4-3.9,6.6-5.6,3.2-15.4,6.2-20.9,6.1.6,5.7-6.2,10.7-11.5,13.9l1.4,1c8.8-5.4,10.5-8.5,13.1-13.5.4,0,.8-.2,1.2-.2,3.2-.7,12.6-2.6,17.4-5.4,3.3-1.9,6.5-6.2,7.6-7.6,5.5-.7,9.9-1.6,13.1-2.9,3.7-1.4,7.8-4.9,9.2-5.8.2,0,.6,0,1,0,2.5,0,8.4,1,12.6,0,4.3-1,9.4-4.1,11.1-5.1,2.1.4,9.2,1.7,15.6,1.7s.4,0,.7,0c5.9,0,12.5-2.5,14.4-3.2l19.8,5.1c.5-.4,4.5-2.4,5.2-2.8l-25.1-4h0Z" fill="#f7f0d0"/>
  <path d="M500.5,62.2c-6.1-1.6-13.8,1.2-22.4,4.1,6.5-4.9,9.9-6.9,14.1-8.2,1.2-.4,5.6-1.5,8.9-1,0,0,5.9,5.5,10.6,9.4,0,0-2.4.1-5.2.8-2.8.7.7-2.4-6-5Z" fill="#f7f0d0"/>
  <path d="M520.2,84.7c-4.5-2.5-17-5-28.5-4.5,8-7.6,16.1-10,21.1-10.9,1.2-.2,6.5-.9,10.5-.3,0,0,2.4,4,8.8,9.7l-2.5.7s-7-3.3-9.8-3.9c-8.6-1.8-19.5,2.1-16.1,2.1,14,.1,18.1,7.4,16.5,6.9Z" fill="#f7f0d0"/>
  <path d="M479.6,57.8c2.2-8.4-12.4-2.4-18.8,1.3,7.1-8.6,17.1-10.1,17.1-10.1,0,0,5.6,5,10.4,7.3,0,0-5.6,1.6-8.8,1.5h0Z" fill="#f7f0d0"/>
  <path d="M543.7,63.1c-3.8-1.7-5.4-2.8-7-3.3-1.7-.5-1.6,1.8-.4,5.1,1.9,4.9,8.2,15.8,10.8,18.2,1.6,1.4,2.6,1.1,2.6,1.1-5.9-10.6-6-21.1-6-21.1h0Z" fill="#f7f0d0"/>
  <path d="M591.6,57.2c-2.5-2.5-5.7-5.7-7.3-7.5-1,2.8-3.6,4.8-6.7,4.8s-6.3-2.5-6.3-6.4,2.8-6.7,6.4-7.1c0,0,0,0,0,0-6.8-2.9-16.1-9.8-17.2-25.6l-1.2-.3c-10,14.9-3.4,36.6,5.7,47.9,9.2,2.8,23.8,7.3,32.3,14.7-.7-3.2-4.6-9.1-5.8-20.6Z" fill="#f7f0d0"/>
  <path d="M552.1,88.3c-3.7-1.7-30-7.6-47.5,9.8,11.1-1.4,36.4-1.4,32.7,10.6,1.1-1,2.6-1.6,4.3-1.6,3.6,0,6.5,3.1,6.5,5.1,0,2.8-2.6,4.4-5.2,5.3-4.2,2-12.5,1.8-12.1,2,11.6,5.8,22.7,3.8,22.7,3.8,5.6-10.2,15.5-12.8,15.5-12.8-3-1-16-20.3-17-22.3ZM538.7,106.9s0-.9-.4-2.2c-1.1-3.5-3.6-10-22.1-10.5,0,0,40.7-5.5,36,17.8,0,0,0-4.8-2.5-6.7-2.4-1.8-6.8-2-11,1.6Z" fill="#f7f0d0"/>
  <path d="M566.4,74.9c-3-.6-9-1-9-1l-2.3-1.9s17.2-.3,31,6.3c5.8,2.8,12.5,6.2,12.5,6.2l-1.6-3.4s-11.6-8.7-26.1-12.9c-9.2-2.7-23.4-2.9-23.4-2.9,0,0,.7,8.9,4.8,16.7,4.1,7.7,10.2,15.5,10.2,15.5,0,0-7-12.3-4.5-11.1,1.1.5,6.7,8.2,10.6,13.4,4,5.2,8.6,9,8.6,9l3.9-.6s-5.5-2.7-12.9-12.7c-7.7-10.5-9.3-19.6-9.3-19.6l3.3,2.8s1.3,5.1,3.5,8.8c2.1,3.7,6.5,9.2,8.7,11.8,2.8,3.3,5.4,4.8,6.8,5.4,1.8.7,13.7-3,13.7-3,0,0,.7-4.3.5-5.9-.3-4.2-1.6-5.8-1.1-6.4s4-.3,4-.3c0,0-8.7-5.3-14.6-8.2-5.8-2.8-11.3-4.7-17.3-5.8ZM588.1,87.8c1.8.9,3.5,1.2,4.2,3.6.8,2.3.2,8.2.2,8.2,0,0-7.9,3.4-10.7,2.1-3.5-1.6-11.4-11-13.7-14.3-3.1-4.3-3.6-7.6-3.6-7.6,0,0,5.6.4,10.3,2.2,2.8,1.1,5.6,2.2,5.6,2.2,0,0-8.5-1.4-9.5-.7s-.4,1,.6,1.9c1.1,1,12.7,9.4,13.9,10.2,2,1.3,4.5,1.5,5.3,1.3.8-.3,1.1-3.6.5-4.6-1.9-3.3-5.8-5.3-7.2-6.1,0,0,2.9,1.1,4.1,1.7h0Z" fill="#f7f0d0"/>
  <path d="M599.3,346.2s9.1-8.9,19.5-14.4c10.4-5.6,24.4-7.6,24.4-7.6l8.2,3.2v1.3s-5.3.2-18.1,3.5c-13.1,3.4-31.1,13.8-34.8,17.3-3.7,3.5-11.7,12.9-11.7,12.9,0,0,13.2-8,20.8-10.1,4.9-1.4,21.2-3.8,21.2-3.8l7.6,4,.6.3.5,1.6s-19.8-.4-34.4,4.3c-18.3,6-32,22.4-32,22.4,0,0,11.2-4.9,15.5-6.2,13.2-4.1,28.2-1.3,28.2-1.3l8.2,4.5-.5,1.9s-24.3-3-37.6.2c-13.3,3.2-25.1,8.4-25.1,8.4l-8.2,6.8s2.9-3.5-.5-5c-3.5-1.6-20.9,1.3-20.9,1.3l4.5-6.6s3.7.5,12-2.2c3.8-1.2,10.8-3.7,17.1-4.3,8.5-.8,4.2,3.6,4.2,3.6,0,0,2.4-1.5,5.6-4.2,1.2-1,.5-3.1-3.4-2.9-6.8.4-19.3,4.3-19,3.9,2.1-2.9,1.8-4.8,3-6.1,4.4-4.7,12.4-7.7,17.4-9.6,5.1-1.9,12.8-3.9,11.2.1-1.6,4-4.5,7.5-4.5,7.5,0,0,8-9.6,9.3-12.5s-10.8,0-15.9,2.3c-5,2.4-1.4-3.4,5.2-8.2,6.7-4.8,15.3-10.6,17.5-11.4,2.1-.8,7.5-.8,4.9,5.6h0Z" fill="#f7f0d0"/>
  <path d="M509.4,400.9l1.2-.8s3.9-2.2,6.4-3.2c3.1-1.3,10.7-3.4,14.6-4.1,4.4-.9,12.6-.2,14.7.3,2.1.5,2.5,3.9-3.6,8.2-6,4.2-9.7,5.8-9.7,5.8,0,0,3.8-5-.3-5.9-5-1.2-23.3-.2-23.3-.2h0Z" fill="#f7f0d0"/>
  <path d="M640.4,132.4s-3.6-2-3.3-7.2c.3-5.2,2.6-6.1,2.6-6.1,0,0,3.2,2.2,3.8,5.5.6,3.3-1.2,7-.7,8.4.5,1.4-2.4-.7-2.4-.7Z" fill="#f7f0d0"/>
  <path d="M232.7,231.8c-.2-.2.2,10.7.6,14.4.3,3.7,1.9,2.6,4.2-.8,3.4-5,10.2-21.2,11.8-27.8,1.3-5.4,1.1-9.7,1.1-9.7,0,0-11.8,32.5-17.6,23.8h0Z" fill="#f7f0d0"/>
  <path d="M239,278.3c0,0,2,8.3,3.6,13.8,1.6,5.4,2.4,7.8,3.6,4.3,2.3-6.9,4.8-25.9,4.8-25.9l-4-6.6s-2,20.6-8,14.5Z" fill="#f7f0d0"/>
  <path d="M235.4,254.2c0,0,.1,9.3,2.4,16.5.4,1.3,1.7,1.3,3.4-3,1.8-4.3,8.5-25.8,8.5-25.8l-2.9-6s-7.6,23.9-11.4,18.3h0Z" fill="#f7f0d0"/>
  <path d="M273.4,346c.8-.3-1.4-12.6-5.2-20.2,1.9,6.6,1,14.9,1.7,16,1,1.5,3.1,4.4,3.6,4.2Z" fill="#f7f0d0"/>
  <path d="M295.6,374.9c.8-.4-2.3-12.5-6.7-19.7,2.4,6.4,3,15.9,3.8,16.9,1.1,1.4,2.5,3,3,2.8h0Z" fill="#f7f0d0"/>
  <path d="M315,390.8c.8-.4-1.8-10.7-6.2-17.9,2.4,6.4,2.5,14.1,3.3,15.1,1.1,1.4,2.5,3,3,2.8Z" fill="#f7f0d0"/>
  <path d="M213.6,263.7c-.5,10.1-2.5,19.6-8.6,32.5,14.5-10.4,20.6-24.5,24.9-38,2.1-7.8.6-12.5.3-18.1-4,7.3-10.2,16.8-16.5,23.5Z" fill="#f7f0d0"/>
  <path d="M216.3,290.8c2.4,6.2,2.7,16.5-.1,26,0,0,.7,1,.9.8,12.8-14.7,15.2-27.8,16.9-38.7.5-5-.6-10.7-1.2-14.6-3.5,9.5-9.1,19.3-16.6,26.6h0Z" fill="#f7f0d0"/>
  <path d="M294,405s2.4-4.5,7.6.7,8.9,16.3,9.9,19.7c.2.6,1.8.7,1.8.7-.8-27.1-7.8-37.4-21.2-48.9,2.4,8.5,2.8,19.3,2,27.9Z" fill="#f7f0d0"/>
  <path d="M273.9,388.3c6.9,0,10.4,8.7,13.9,20l1.7.6c2.7-19.7-2.3-31.8-3.1-33.8-1-2.4-8-12.2-11.3-16.4,1,8.1.6,21.7-1.2,29.6Z" fill="#f7f0d0"/>
  <path d="M255.4,363.6c7.3.8,10.1,14.5,11.6,26.3,0,.5,1.2.9,1.2.9,3.5-12.4,3.5-30.2,1.6-39.8-3.4-10.6-7.2-13.6-10.3-17.2,1.4,8.4.7,21.1-4.1,29.8h0Z" fill="#f7f0d0"/>
  <path d="M239.7,338.7c5.7,3,7.9,17.5,8.6,27.9,0,0,.8,1,1,.7,7.2-13.4,5.7-26.8,5-35.7-1.1-7.8-5.5-13.1-8.1-19.4-.8,7.5-3.4,20-6.5,26.6Z" fill="#f7f0d0"/>
  <path d="M226.4,312.7c3.5,8.3,4.1,17.9,3.7,28.7,0,0,.8,1.4,1.1.9,11.9-15.3,10.3-34.8,10.3-35.1,0-8.8-2.7-15.1-4.4-21.8-1.9,9.6-4.6,18-10.7,27.3Z" fill="#f7f0d0"/>
  <path d="M245.8,302.2c0,0,2.2,5.7,4.6,11,2.1,4.7,4.4,9,4.4,9,1.4,2.8,2.4-25.1,2.7-31.1-3-2-4.2-2.9-4.6-3.1-.7,3.7-3.9,17.6-7.1,14.4Z" fill="#f7f0d0"/>
  <path d="M274.2,320.4s6.7,5.2,10,10.8c.1.2.2.4.3.5,3.7,6.4,6.3,16.6,6.3,16.6,0,0,7.1,2,10.5,5.6,3.9,4.2,7.7,13.7,7.9,13.9.5.2,4.9,0,8.4,2.8,4.6,3.7,11.4,13.1,11.5,13.1,0,0,3.1-1.6,4.9-.9l-.4-3.5s-1.2-.7-5.2.3c-3.3-4.5-7-8.2-9.7-10.3-3.1-2.5-8.1-4.3-9.6-5.1-.1-.2-.3-.5-.5-.9-1.3-2.2-3.3-7.8-6.2-11-3-3.2-8.2-6.1-10-7.1-.7-2-3.1-8.8-6.4-14.4l-.3-.6c-3-5-8.4-9.6-10-10.9l-5.5-19.7c-.6-.3-4.3-2.7-5-3.1l9.1,23.7h0Z" fill="#f7f0d0"/>
  <path d="M262.4,280.2c2,9.5,4.1,11.9,10.5,15.6-11-1.8-19-12-19-12,0,0,.9-7.2.4-12.5,0,0,6.5,6,8.1,8.8h0Z" fill="#f7f0d0"/>
  <path d="M231.8,219.4c.5,4.2.3,6.1.6,7.7s2.4.5,4.6-2.2c3.3-4.1,9.6-14.9,10.3-18.4.4-2.1-.3-2.8-.3-2.8-6.2,10.4-15.3,15.7-15.3,15.7h0Z" fill="#f7f0d0"/>
  <path d="M250.9,244.5l-2.7,13.5s2.2,6.6,6.1,10.6c4.4,4.6,14.2,6.1,14.2,6.1,0,0-4.3-3.4-6.9-9.5-2.7-6.4-3.5-11.7-3.5-11.7,0,0-4-2.2-7.2-9.1h0Z" fill="#f7f0d0"/>
  <path d="M250.9,225.7l2.9-6s1.9,8.2,6.5,17.9c5.6,11.8,13.7,17.4,13.7,17.4,0,0-10.4-2.4-16-10.6-6-8.8-7.1-18.7-7.1-18.7h0Z" fill="#f7f0d0"/>
  <path d="M268.6,92c-9.6,1.5-26.9,11.8-28.5,33.9-2.7,35.6,27.2,44.7,30.8,47.2,23.7,16.2,7.7,33.2,7.1,34.8,1.1-1.9,13-7.9,4.8-31-5.1-14.5-23.2-20-25.9-41.7-.4-3-.2-10.1.5-13.7.2-1-.5,4.5-2.7,6-2.8,2-3.5-1.7-3.5-4.6,0-8.6,8.8-19.1,9.9-19.9,13.9-9.6,24.1-8.3,31.4.3,0,0-2.7-14.6-23.9-11.3Z" fill="#f7f0d0"/>
  <path d="M278.5,107.9c-4.2,4.4-5.6,14.5-2,21.8,4.5,9.2,12.9,14,31,2.7,9-5.7,9.7,11,9.8,11.6,0-.8.2-26.3-10.3-25.5-2.7.2-5.8,5.1-14.7,5.1s-5.3-.5-7.6-5.1c-.5-.9.5,3.6-1.5,4.9-1.4,1-3.2,0-3.5-.9-1.1-3.1-1.1-7.1,1.5-12.2,2.7-5.5,10.1-3.8,10.8-3.6,0,0-7.8-4.7-13.6,1.4h0Z" fill="#f7f0d0"/>
  <path d="M271.6,103.1c-6,3.5-14.2,14.4-10,34.4,2.9,13.7,15.9,25.6,26.9,25.9,16.5.4,18.7-17.5,18.8-16.5,0-1.4-6.2,7.4-16.1,4.8-4.4-1.1-13.3-3.6-14.9-18.6,0-.8-.8,4.1-2.4,5.7-2,2-5.2.6-6.4-4-4.4-16.8,0-23,4.9-28.2,5.1-5.3,12.6-4.9,20.1-1.6,0,0-9.5-8.6-21-2h0Z" fill="#f7f0d0"/>
  <path d="M293.3,87c5.1-1.2,11.5-2.6,10.1-13.3-2.2,8.3-7.1,8.8-12,8.9,0,0,1.9,4.4,1.9,4.4h0Z" fill="#f7f0d0"/>
  <path d="M231.3,146.8c-2.5,1.7-4.7,2.8-7.8,3.7.1,2.2-2.6,5.6-6.9,8.5-10.9,7-17.6,7.5-21.4,10.4-14.3,11.1-12.6,26.2-10.6,31.3-.2-8.5,3.4-21.2,11.6-23.4,1.4-.4,2.8-.4,4.4-.1s3.3,1,5.2,2.1c2.4,1.4,16.9-10.6,24.2-18.4,7.7-8.2,8.5-10.6,9.1-16.4,0,0-1.3,3.6-2.9,5.1-2.2,2.2-6.7,6.2-6.2,5.7,9.1-10.9,8.9-20.1,8.7-20.2-.8,3.7-1.7,7.9-7.3,11.8h0Z" fill="#f7f0d0"/>
  <path d="M266,174.9c-2.9,0-5.5,1.6-7.6,4.1-2,2.6-3.9,5.1-4.9,16.9-1.4,16,10.9,36.4,23.5,39.2-7.2-7.8-13-15.1-14.3-27,2.7,4.4,10.1,8.7,12.7,9.5-.2,0-3.3-2.3-5.7-7.9-2.7-6.5-3.6-14.9-3.6-14.9,0,0,1.2,8.6-.9,9.8-3.7,2-7.2-4.7-5.2-15.7,2.9-15.9,14.8-10.6,14.8-10.6,0,0-5.9-3.3-8.8-3.3h0Z" fill="#f7f0d0"/>
  <path d="M200.9,150.3c-3.1,3-8.3,10.5-20.3,3.6,4.5,6.9,10.7,7.6,15.8,8,4.6.4,10.5-1.1,14.1-3,5.2-2.7,9.3-5.8,8.8-7.6-6,.8-6,.9-10,.9-2.4,0-8.3-1.9-8.4-1.9Z" fill="#f7f0d0"/>
  <path d="M228.1,216.9s1.9,10.2-.5,17.7c-1,3.2-7.1,13.6-11,18.6-3.7,4.7-14.4,14.4-15.9,15.6s-1.6-.3-1.6-.3c0,0,3.9-7.6,4.9-10.1.2-.6,1-3,1-3,0,0,5.6-2.9,7.5-4.7,2.5-2.3,5-6.6,5-6.6,0,0-7.8,5.2-12.3,7.1-3,1.2-5.5,2.1-7.1,2.3l-.9-.8s4-3.9,6.8-8.2,6-11.2,6-11.2c0,0,4.8-3,8-6.7,7.6-8.7,8.4-16.7,10.3-9.6h0Z" fill="#f7f0d0"/>
  <path d="M203.1,186.1s-1.4,7.6-4.1,14.5c-2.7,6.9-9.4,14-9.4,14v1.8s7.3-1.6,14.7-6.6c5.9-3.9,8.9-10.5,8.9-10.5-2.6,9.1-2,7.4-3.4,11.9-2,6.6-4.6,9.2-6.2,9.6-1.6.4-2.8-3-2.8-3,0,0-3,8.9-5.7,12.4s-5.5,7.6-5.5,7.6v1.2s12.9-6.2,17.2-9.6c7.8-6,10.4-11.9,13.1-23.6,2.7-11.8,0-30.5,0-30.5,0,0-5.3,7.4-16.8,10.7h0Z" fill="#f7f0d0"/>
  <path d="M253.8,169.1s-2,8.1-4.7,13.7c-.6,1.3-3.7,7.6-7.3,12.4-2.7,3.6-8.6,9.6-8.6,9.6,0,0-4.2-10.1-5.2-16.8-1.4-9.4-.3-13.7-.3-13.7l1.1-2.1s-.2,2.9.4,9.3c.7,7,5.3,18.1,5.3,18.1,0,0,9.2-10.2,12.4-17.6,2-4.7,4.7-14.3,4.7-14.3,0,0-1.3-2.2-4.2-5.9-2.9-3.7-4.9-6.9-6.5-6.9s-3,1.8-6.2,5.6c-2.6,3.1-7.3,7.5-8,8.2-.7.7-3.4,3.2-3.4,3.2,0,0-.7,6.8,1.2,21,1.5,11.2,7.4,20.5,7.4,20.5,0,0,13.7-11.7,18.1-21.5,3.1-7,6.9-18.9,6.9-18.9l-3.1-3.7h0ZM232.1,165.7c.4-.6,7.3-7.4,7.8-8,.5-.6,1.6-.3,1.6-.3,0,0,6.8,7.6,7.3,9.2.5,1.9-1.5,6-2.4,9.2-1.2,4.1-3.8,9-5.5,11.8-1.9,3.3-5.4,6.9-5.4,6.9,0,0-2.7-4.9-3.6-10.4-.8-4.9-1.1-13.9-1.1-15.2s1.1-2.7,1.4-3.4h0Z" fill="#f7f0d0"/>
  <path d="M241.4,160.4c.4.4,5,6.7,5.2,7.2.2.4.1,2.5-1.7,2.8-2.4.4-5.4-3.8-5.9-1-.4,2.8-2.8,20.9-3,22-.3,1.1-1.5-2-1.9-4.1-.4-2.1-3.1-16.8-1.4-19.1,1.7-2.3,7.1-9.5,8.8-7.7h0Z" fill="#f7f0d0"/>
  <path d="M268.5,179s6.4-.4,9.7,4.1c3.3,4.5,2.9,12.6,2.9,12.6,0,0-.7-9.6-6.6-10.4-6-.8-7.8,2.3-7.8,2.3,0,0,1.7-2.3,3.3-3.1,1.6-.8,7.2-3.6-1.5-5.6h0Z" fill="#f7f0d0"/>
  <path d="M285.6,79.7s.9,7.1,4.3,13.6c3.1,5.8,5.7,8.7,8.8,11.9,3.6,3.6,9.6,2.1,11.8.8,2.3-1.3,6.4-7.1,6.4-9.3s-2.5-7.3-2.5-7.3c0,0,4.7,4.4,5.8,5.9s3.2,5.2,3.5,7.2c.4,3.1.1,7.4-.8,9.1-1.6,2.8-13.7,1.9-21.9,3.9-4,1-7,2.2-7.8,4-1,2,.8,2.3.8,2.7,0,0-5.5-.4-6.9-3-3.6-6.8.4-11.7,2.6-11.7,4,0,4.3,3.1,4.3,3.1,0,0,1.1-5.9-1.2-10.8-1.8-3.8-2.9-4.2-4.6-7.7-1.7-3.4-2.5-12.2-2.5-12.2h0Z" fill="#f7f0d0"/>
  <path d="M290.7,85.7c3.2,7.5,8.5,12.9,11.3,15.1,3.2,2.4,5.5.6,7-.5,5.9-4.1,6.3-5.9,6.3-5.9,0,0,1.1.8.4,2.8-.7,2-4.1,5.6-8.7,6.7s-8.1-.5-12-5.7-8.6-16.7-8.4-22.9c.1-4,1.1-9.2,2.2-11.7.5-1.2,2.3-3.3,2.3-3.3,0,0-2.3,3.5-2.9,7.8-.6,4.3-.7,10.2,2.4,17.7h0Z" fill="#f7f0d0"/>
  <path d="M299.4,95.1s1.6,2.8,4.4,4.3c1.1.6,3.4.5,5.6-1.6,0,0-2.2,1.3-3,.5s2.2-3.9,2.7-6.3c.5-2.4.3-5.1.3-5.1,0,0,2.5,2.2,2.4,4.3,0,0-.1-2.6-.8-3.9-.7-1.3-3.2-2.9-3.2-2.9,0,0,1.1,2.3-.9,4.3-1.1,1.2-7.5,6.4-7.5,6.4Z" fill="#f7f0d0"/>
  <path d="M228.1,116.6c0,.9,0,1.8-.2,2.6.4-1.7.2-2.6.2-2.6Z" fill="#f7f0d0"/>
  <path d="M269.5,58.8s-4.9,2.9-5.9,4.9c-.9,2-.7,5.4-.5,6.5.1,1.1,1.9.8,4.4-2.7,2.5-3.4,2-8.8,2-8.8Z" fill="#f7f0d0"/>
  <path d="M295.2,43.6c-2-.8-8.3,5.2-8.5,4.9-.2-.3,4.8-7.6,4.6-7.9-.6-1.2-.9-2.3-2.5-2.2-3.5.2-17.5,8.8-19.5,10.8-.3.3-.6.5-.8.7,0,0-.2.9-.4,1.8,0,.5-.2,1.1-.2,1.4,1.5-1,5.4-3.5,5.4-3.5,0,0-14.4,11.6-16.5,17.8-1.7,5-.9,12.1-.4,14.8,2.1-2.3,4.9-5.9,5.2-8.8-1.7-5.3-.3-9.6.4-10.9,1.8-3.3,9.3-9.5,9.3-9.5,0,0,2.5,9.1-1.3,14.3-1.9,2.6-5.5,4.8-6.6,5.7-.7,4.5-4,8.3-4.6,8.9-.1.1-4.5,3.9-4.5,3.9,0,0-3.5-10.4,1.1-19.4,3-6,8-11.1,11.5-13.5-.3-.8.3-3.3-1-2.8-6.3,2.4-17.8,9.5-25.8,19.2,0,0,0,0,0,.1-6.4,10-7.6,12.8-9.8,19.3,0,0-.8,0-.8-.2,0-1,4.2-15.7,11-22.8-1.3-.9-3-3.1-4.9-3.1-.5,0-7.6,5.7-17.7,15.8-3.3,3.3-4,9.2-6,14.8-1.1,3-7.4,17-7.4,17,0,0,11.4-20.1,12.4-19.5.9.5-2.3,14.2-6.1,25.7-6.9,20.7-23,15.6-26.1,7.2,0,0-1.5,10.2,8.5,19,5.1,4.4,14,8.5,27.5,5,2.7-.7,5.4-1.8,7.9-3.4,8-5,8.7-9.4,9.1-15.6.1-2.1.3-4.4.6-7.1.5-3.3,3.2-13.4,7.5-19.3,3.9-5.4,10.9-12.1,19.1-14,15-3.2,21.6,4,21.6,4-5.3-20.5,3.2-37.9,6.2-35.9,2.4,1.6,3.1,3.8,3.2,3.7,1.8-3.5,2.9-7.7,6.9-9.6-3.3-4.6-4.9-5.7-7.5-6.8h0ZM226.1,90.3s1.1.9,5.6.4,7.3-11.7,7.3-11.7c0,0,.4,2.5.3,7.6-.1,5.1,5.2,5.4,5.2,5.4,0,0-4.8,5.8-11.7,5.4s-6.6-7.2-6.6-7.2ZM232.2,120.3c-.3,1.2-3,6-4.1,7.4-1.9,2.3-3.6,4.4-7.1,7.6,0,0,3.7-4.7,5.1-7.8,1.9-4.4,1.8-8,1.8-8.3-.7,3.3-2.9,10.4-13.5,18.7-20.6,12.1-28.1-9.2-28.1-9.2,9.2,12.8,17.6,11.6,21.8,8.6,8.7-6.2,12-19.3,13.5-24.2,3-9.8,2.5-22.3,2.6-21.1.5,3.8,3.6,12.6,14.3,9.7,4.8-2.8,11.9-7.2,11.9-7.1-13.2,10.8-17,23.1-18.1,25.8h0ZM274.8,81c-8.1,0-23.3,12.9-23.3,12.9,0,0,4.8-4.8,14.5-12.1,6.9-5.2,7.5-12.1,7.2-15.7-.2-1.4-.3-2.4-.3-2.4,0,0,.2.9.3,2.4.1.8.3,1.8.6,2.8.8,3,8.1,1.9,8.8,4.5.7,2.7,1.6,16.2,1.6,16.2,0,0-1.3-8.7-9.5-8.7Z" fill="#f7f0d0"/>
  <path d="M298.7,58.6l5-4.2s3.4,3,3.5,5.3c.2,2.3.5,7.6.5,7.6,0,0-1.6-6.2-2.8-7.4-1.2-1.2-1.1,3.4-1.1,3.4l-5.1-4.6Z" fill="#f7f0d0"/>
  <path id="spine_mouth-2" d="M617,137.5c1.5,11.9,9.5,8.4,9.5,8.6,2.9,23.5,9.5,30.3,13.1,38.6,3.6,8.3,4,16.5,1.6,25.8-2.3,9-17.6,25.3-7.5,46.7,0,0-6.8-8.8-6.2-21.1.4-10.3,8.1-23.3,8.1-34.6,0-17.1-8.2-21.3-12.4-34.7-5.1-16.6-6.1-29.3-6.1-29.3h0Z" fill="#f7f0d0"/>
  <path d="M495.3,393.3c7.3-6.2,15.2-13,22.6-24.9.4-.7,1.2-.6,1.2-.6,0,9.5-7.6,23.9-13.2,28.6-4.5,3.8-13.4,10.8-27,14.6,0,0,13.5-9.2,16.4-17.6h0Z" fill="#f7f0d0"/>
  <path d="M518,383.6c8.4-5.4,14.1-10,19.7-22.7l1.5-.3c.3,11.6-11.8,26.2-14.8,28.6-3.8,3-8.3,4.4-8.3,4.4,0,0-2.1-2-1.7-4,.5-2.1,3.5-6,3.5-6Z" fill="#f7f0d0"/>
  <path d="M335.6,402.5c-7.6-7.8-19.6-8.4-25.8-8.8,3.2,1.3,15.8,4,20.5,9.7,20.7,25.3,32.6,28.1,54.1,26.6,0,0-8.3.1-13.3-1.7-4.3-1.6-6-5.3-.3-5.2.9,0-11.7,3.6-35.3-20.6h0Z" fill="#f7f0d0"/>
  <path d="M370.1,440.8c-10.5-.7-21.2-6-32.7-18.1,0,0,.6,6,.7,6,18.8,14.3,32.1,12.5,32.1,12.8s0-.7,0-.7Z" fill="#f7f0d0"/>
  <path d="M504.9,403.5c-7.6,1.8-10.7,3.6-10.7,3.6,0,0,32-.8,29.8,5.7,2.5-2,5.7-4.1,5.7-4.1,1.2-.8,1.8-4,0-4.6-5.5-1.6-18.9-2.1-24.8-.7h0Z" fill="#f7f0d0"/>
  <path d="M531.9,417.4s9.5-1.6,17.4-.4c5,.8,12,3.4,17.1,7.5l15.1-3.1c-2.5-5.6-9.8-9.4-20.7-11.4-8.3-1.5-13.7,1.1-21,2.4l-7.9,4.9h0Z" fill="#f7f0d0"/>
  <path d="M663.4,214.7c.2,0-2.6-1.6-2.6-1.6-5.8-.2-15.1,8.8-18.4,15.6-3.9,8.1-5.3,18.3-5.1,23.6,0,0,2.7-12.6,7.9-22.1,4.7-8.5,10.5-13,18.2-15.5h0Z" fill="#f7f0d0"/>
  <path d="M664.6,242.4c.2,0-4.3-2.8-4.3-2.8-6.8.8-18.5,12.5-22.5,18.9-5.3,8.5-8.5,16.4-9.7,24,0,0,3.4-10.5,10-19,6-7.7,17.5-18.4,26.5-21.1h0Z" fill="#f7f0d0"/>
  <path d="M663.7,271.2s0-1.5-.8-1.8c-2.2-.9-7-1.2-7-1.2-7.4,3.4-22.7,16.7-27,23.1-5.6,8.3-7.8,14.4-9.2,21.9,0,0,4.3-11,11.2-19.3,6.2-7.5,24.7-20.8,32.9-22.6Z" fill="#f7f0d0"/>
  <path d="M658.3,300.4s.1-1.5-.7-1.9c-2.2-1.1-9-1.4-9-1.4-7.7,2.7-25.4,15-30,21-6.9,9-10.7,13.6-12.8,21,0,0,8.9-11.2,16.5-18.8,6.9-6.9,27.6-18.8,36-19.9h0Z" fill="#f7f0d0"/>
  <path d="M563.2,435.6c-1.9-2.7-4.2-4.9-7.1-6.7-.4-.3-8.5,1.8-8.9,1.5-.3-.2,7-2.7,6.7-2.9-6-3.1-12.5-2.8-23.6-3.8-1.5-.1-3.9.4-7.4,2.9l-7.6,4.9c8.9-.4,21.4,7,21.4,7,0,0,11.3-5,25.9-2,.5,0,0-1.1.6-1h0Z" fill="#f7f0d0"/>
  <path id="eye_solid-2" d="M401.1,404.9c-1.3-.4-4.1-.4-5.4.2-1.5.7-3.1,1.3-3.8,2.9,0,0,3.1,3,4.8,3.5,2.2.7,3.6.2,5.9-.9,1.8-.9,5.5-1.7,5.5-1.8-.6-.9-5.3-3.4-6.8-3.9h0Z" fill="#f7f0d0"/>
  <path d="M508.1,453.2l-9.2-1.1-.2-.5,7.5-.6c-1.8-2-4.5-4.5-8.8-6.5-1.4-.3-11,6.1-11,6.1,0,0,6,8.1,6,8.1,6,1.5,20.1,6.7,23.6,7.7-.9-2.1-2.5-5-3.8-6.5l-11.6-2-.4-.5,10.6.2c-.3-.5-1.9-3-2.7-4.3h0Z" fill="#f7f0d0"/>
  <path d="M520.5,447l-.6-.6,10.9-1.9c-1.2-1.3-2.5-2.5-3.8-3.7-.4-.3-6.8,1-6.8,1l-.5-.4s5.4-2.1,5.2-2.3c-4.3-3-6.9-4.1-9.6-4.5-1.4-.2-5.3.7-6.6,1.8-1.3,1.1-8.2,5.2-8.2,5.2,7,3.2,10.2,7.4,11.3,9.2,0,0,21,1.8,24.6,2-.9-1.5-1.4-2.7-3.2-5.2l-1.2-.4-11.4-.4h0Z" fill="#f7f0d0"/>
  <path d="M450.4,392.2c0,0-14.6,9.1-28.2,10.1-9.8.7-18.7-4.4-20.4-6-3.5-3.2-7.1-7.2-8.8-8.3-4-2.8-8-1.6-10.5.9-2.3,2.3-2.2,6.4-.8,9.8,1.2,2.9,4,4.2,7.2,4.6,2.5.3,3.1-.6,9.9-2.4,4.5-.2,6.2,5,14.3,7.5,5.5,1.7,29.6-2.2,29.6-2.2,0,0-23.3,5.5-23.7,6.9-.4,1.5,1,3,4.7,3.6,9.4,1.5,22.5-3.3,26.6-5.4,5.6-2.8,19.5-13.5,26.8-31.2.1-.3-.6-.7-.6-.7-12.6,9.6-18.6,10.6-26.2,12.8h0Z" fill="#f7f0d0"/>
  <path d="M410.2,381.5c-2.3-2-9.4-1.3-8.5-1.7,3-1.3,15.3,2.7,20.8-3.8-7.7,1.9-9.9.8-17.8-.5-5.1-.9-23.4,2-27.5,14.8-1.2,3.6.8,9.2,1.7,10.9,0,0,.1.6,1.2,2.1,0,.1-.8-.8,0-1.6s2.7.9,4.3,1.3c-4-3.2-4.5-5.2-4.8-7.4-1-6.5,2.2-11.6,10-12,6.6-.3,11.9,7.4,15.7,10.2,15.4,11.3,44.6,0,46.5-13.4,0-.2-.7-.3-.7-.5-16.9,15.9-31.9,9.4-40.7,1.5h0Z" fill="#f7f0d0"/>
  <path d="M499.8,374.1c-9.8,15.4-20.5,18.1-25.2,19.5-6.9,11.2-27,27.6-53.9,24.9-5.1-.5-8.8-4.8-10.1-6.4-.3-.4-6.9.8-9,1.4-3,.9-7.4,1.4-10.1-2-2.7-3.3-4.8-4.1-13-4.5-3.5-.2-11.9.4-12.5.8,5.1-2.4,2.4-8,2.4-8,1.1.7,12.1,6.4,11.4,5.8s-6.2-4.4-11.4-9.2c-7.2-6.6-14.1-14.3-14.1-14.3l16.3,11.2c-.7-1.9-2.7-6.6-1.7-8,2.6-3.6,8.4,1.3,8.4.4,1.6-4.5,4.7-9.2,17.2-13-4.2.6-9.2,1.9-12.6,3.2-3.9,1.5-6.1,3.1-6.8,3.6,0,0-12-6.3-18.1-8.3-7.9-2.7-28-.7-18.4,21.1,0,0,7.3,16.1,7.3,16-.4-14.6,3.3-15.5,5.9-15.5,7.6,0,12.5,16.2,12.6,16.2,16.7,0,33.9,3.9,33.9,24.5s3.5,7.5,9,7.5,6.4-3.2,8-5.5c-.5.1-1,.2-1.5.2-3.8,0-6.9-3.1-6.9-6.9s3.1-6.9,6.9-6.9,6.9,3.1,6.9,6.9-.1,1.4-.3,2c-.2.7,21.4,1.2,40.7-11.2,3.4-2.2,12.4-9.4,15.7-12.6-6.3,10-32.2,25-37.8,27.1-8.2,3-16.5,4.7-20.3,1-.2-.2-3.7,8.7,7,8.7,15.8,0,44.5-23.5,61.1-46.9.2-.2-3.9,8.9-3.9,8.9,12.5-12.3,15.2-23.5,17.5-31.4.1-.4-.8-.2-.8-.2h0Z" fill="#f7f0d0"/>
  <path d="M583.4,336.8s-.2-8.8,3.5-14.1c.1-.2.2-.4.4-.5,4.3-6,12.3-12.5,12.3-12.5,0,0-1-7.5.9-12,2.2-5.3,9.6-11.1,9.5-11.4,0-.6-2.3-6-1.2-10.3,1.4-5.7,7.6-13,7.5-13.1,0,0-3.4-7-3-11.4.6-6.4,3.8-10.4,5.2-13.8-3.1-4.4-3.9-14.5-3.5-21.2-.6.4-1.2.9-1.7,1.3-.6,9.8-.7,16.8,1.8,21.6-.2.4-.3.7-.5,1.1-1.3,3-3,6.8-3.5,12.4-.3,3.8.8,8.6,1.3,10.3-2.7,4.9-4.4,9-5.2,12.3-1,3.9-1.4,8.6-1.5,10.2-.1.2-.4.5-.6.8-1.5,2.1-4.5,6.4-6.2,10.4-1.7,4.1-2.4,10.4-2.6,12.4-1.6,1.5-6.7,6.5-10.4,11.8-.1.2-.2.4-.4.5-3.3,4.8-5.2,11.7-5.8,13.6l-7.4,10c-.5.5-.5,3.3-.3,3.8l11.2-12.4h0Z" fill="#f7f0d0"/>
  <path d="M620.9,182.4s7.5,12.2,8.2,20.7c.7,8.5.5,12.6-2,21.8-2.5,9.3-2,13.1-1.4,16.2.8,4.2,4.7,11.6,4.7,11.6,0,0-4.8-10.9-3.5-18.9,1.3-8,6.4-20.3,6.5-31.4,0-9.1-2.6-11.1-2.6-11.1,0,0,1.5,5.7-2,2.8-3.4-2.9-7.9-11.8-7.9-11.8h0Z" fill="#f7f0d0"/>
  <path d="M570.1,343.9s.3,8.3-1,12c-1.6,4.7-5.3,8.1-5.3,8.1,0,0-8.1,4.6-7.1,2.9.8-1.4,1.5-4.6,1.5-4.6,0,0,2.2-1,5.8-4.9,4-4.3,4.7-11.5,5-13.1.1-.5,1.1-.4,1.1-.4h0Z" fill="#f7f0d0"/>
  <path d="M554.2,353.4h1s.5,8.8-.7,12.9c-1.2,4.2-4.4,10.8-8.2,14-3.7,3.2-8.5,3.3-9.2,3.3h-1.4l-.6-.5,3.1-4.7-1.7.5.6-2s4.5-2,8-5.9c3.5-3.9,7.6-10.3,8.1-12.8.4-2.5,1.1-5,1.1-5h0Z" fill="#f7f0d0"/>
  <path d="M546.7,404.8s11.2-7.6,12.9-8.3c2.3-1,9.7-3.1,11.7-3.4,12.2-2.2,23.1.1,23.8.5.6.4,6.4,6,6.4,6l-.3.6s-6.8-2.7-13.6-3c-6.8-.3-13.3-.2-21.8,1-11.3,1.5-19,6.6-19,6.6h0Z" fill="#f7f0d0"/>
  <path d="M496.7,412.3c6.2-.2,17.9,2.8,17.9,2.8,0,0-8.8,4.8-7.1,3.3,1.7-1.5-15.1-1.4-15.1-1.4,0,0-3.6-.4-3.9-2.8-.1-1.6,5.1-1.7,8.1-1.8h0ZM476.5,435c-1.2,0-3.3-1.1-.9-3.7s17.9-8,17.9-8c.7-.4-.8-.7-2.4-.7s-14.5,1.2-16.3,1.3c-1.8,0-2.7.4-3.1.9-.4.5-3.5,6.1-3.9,7.1-.7,1.8-2.4.4-1.6-1.6,1.3-2.7,4-7.2,4.1-7.6.3-.5.8-1,1.6-1s7.6-.8,14.1-.9c7.1-.2,14.1-.2,14.6-.2.8,0,.6,1,0,1.5s-9.5,7.8-12.6,10c-2.6,1.9-8.6,5.6-11.1,6.9-.6.3-1.5.7-2.2.3-.2-.1-3.9-2.2-4.8-2.7,5-.2,7.8-1.5,6.5-1.5h0ZM473.7,441.7s1.9.3,3.9-.6,7.3-3.8,12.3-7.7c5.4-4.2,12.2-10.4,13.9-12.2,1-1,3.5-1.9,3.5-1.9,0,0-8.1,9.5-16.1,15.6-6.1,4.7-12,8.2-13.8,8.2-1.9,0-3.7-1.5-3.7-1.5h0ZM481,450.5c-.4-.7-.1-1.5.9-2.1,1-.7,5.7-3.7,14.6-10.8,11.1-8.8,15.5-20.3,16.4-20.9.8-.4,4.3-2.1,5.1-2.5,1.1-.5,1.2.6,1.2.6,0,0,2.5-1.7-.3-2.5-7.1-2.1-17.8-2.8-22.5-2.5-5.2.3-9.3.8-11.8,1.8-2.5,1-3.2,1.5-2.3,2.7,1.1,1.3,10.1,2.7,10.1,2.7,0,0-20.5.6-21.7,2.3-1.3,1.8-9.9,12.9-9.9,12.9,0,0-1.5,1.9-.2,3.2,3.4,3.4,7.4,5.8,10.5,7.9,2.1,1.4,7.1,3.3,7.1,3.3.6.5-3.4,1.8-8.3.5-3.7-1-20.2-7.7-20.2-7.7l-1.6.8s4.7,2.7,10.3,6c7.9,4.6,15.2,17.5,15.2,17.5l20,7.4s.1-.5-.2-1.3c-1.4-4.1-2.9-5.4-2.9-5.4l-13.4-2.5v-.4s11.7.7,11.7.7c0,0,.3-.4,0-.6-.3-.3-2.4-3.5-2.4-3.5l-9-.4-.3-.8,7.8-.7s-.8-1.5-1.9-2.6l-2.1-2.8h0Z" fill="#f7f0d0"/>
  <path d="M432.4,447.8c-1.5-.7,3.6-2.6,4.5-3s12.6-.2,17.1,3.2c2,1.5,4.8,5.2,5.2,6s3.3,5.2,3.3,5.2l-9.8-.3.4.5,10.3,1.5,2,3.7-9.7-.9.6.8,10,2.2s1.9,4,1.9,4.7-.3.8-.3.8l-27.2-9.2s-1-11.5-8.3-15.1h0Z" fill="#f7f0d0"/>
  <path d="M420.9,446.7c-10.9-3.3-24.2-.2-23.6-11,0-.1-2.8,5.7-6.6,2.4-1.8-1.6-4.1-3.8-5.1-5,0,0-.9.5-.9.6.6.6,3.9,6.1,2.9,8.6-1.1,2.8-3.9,5.5-7.4,6-2,.3-6.1.9-8.2-.8-3.2-2.5-2-5.3-2-5.3,0,0-2.9.2-5.9,2-17,10.3-16.9,21.7-18.8,30,21.6-20.9,92.1-18.9,78.7,6.2,0,.1,1.2,1.4,1.2,1.4,17.1-12,6.7-31.8-4.4-35.1h0ZM360,463.6c-9.3,3.5-12,7.4-12,7.4,0,0,4.2-8.7,14.6-13.1,10.5-4.4,16.6-4.4,16.6-4.4,0,0-5.8,1.6-3.4,3.8,1.4,1.3,6,.9,11.1.8,3.7,0,5.5.4,5.5.4,0,0-15.6-1.2-32.4,5.2h0ZM425.6,479.8s1.8-4.8.5-9c-2-6.6-10.6-9.3-10.6-9.3,0,0,2.5-2.1,2.3-4.6-.2-2.5-10.3-5.3-10.3-5.3,0,0,10.4,1.8,15.5,5s7,9.8,6.6,15.1c-.4,5.3-4.1,8.2-4.1,8.2Z" fill="#f7f0d0"/>
  <path d="M311,398.1s12.2,1.7,19.5,12.1c5.1,7.3,6.6,20,6.6,20l-1,1.4s-1.9-6.7-9.1-13.7c-4.5-4.3-9.3,2.4-9.3,2.4,0,0,.2-5.9-1-11.6-1.2-5.7-5.6-10.6-5.6-10.6h0Z" fill="#f7f0d0"/>
  <path d="M613.8,200.9c-.4-.9-.5-1.8-.5-2.6,0-1.8.3-3.1.9-4.2.9-2.1,4.2-4.1,6.2-5.1.1-.1.2-.2.4-.3-3.3-1.1-7.6-2.3-9.6-9.6-2.4-8.5,3.5-12.9,5.3-13.9-1.9-.4-6.3-2.9-6.5-3.6-.2-.8,3.7-3.9,5.8-5.9-1.9-.4-7.7-3-7.7-3,0-.3,5.1-4.6,7.8-6.2-10.5-3.6-10.1-5.7-10.1-5.7-9.6.3-18.3-8.6-22.3-18.5-1.6-3.9-2.3-8.4-.6-12.1-.7,0-8.7-.7-16.6,5.3-7.9,5.9-12.1,9.6-13.8,20.1,7.4-10.8,27.8-10.8,30.2-4.6,2.3,5.8-.9,12.6-6.8,20.7,7.3-5.4,15.5-3.6,16.9-.4,1.5,3.3-2.4,4.3-6.2,4.3,15.7,17.6,14.8,29.5,13.6,35.7-.7,4.5-2.2,9-6.8,9.7-1.6.2-7.2-.8-8.5-4.3,0,0-1.1.3-1.1.3,1.3,10.5,8.1,13.2,13,13.2,6.6,0,11.5-2.2,11.9,7.8,2.8-3.6,7.9-8.5,17.4-11.8-.7.2-10.2.7-12.2-5.2ZM589.2,156.4s5.8,1.3,6.9-1.8c2.1-6.4-10.5-7.2-10.5-7.2,0,0,13.7-1.3,15.5,6.9,1.8,8.7-11.8,2-11.8,2h0Z" fill="#f7f0d0"/>
  <path d="M612,134.7s-4.1-5.2.8-8.4c4.9-3.2,9.5,3.5,6.7,6.2,0,0,5.3-5.3,2-9.5-4.9-6.1-11.1-1.4-11.1-1.4,0,0,6.4-1.5,3.7,1.2-2.8,2.8-6.9,7-2,11.9h0Z" fill="#f7f0d0"/>
  <path d="M680.5,167.7c-8.2,0-9.8,4.8-13.2,10.1-1.5-5.4.9-10.1,4.3-12-2.7-.5-5.5.5-6.9,1.2-3.9-6.8-2.5-17.2.3-24.7-1.6,1.8-3.8,3.8-5.3,4.9,1.1-3.1,3-8.2,4.2-11.3-1,.6-2.8,2.4-5.1,4.1,1.5-3.6,2.8-7.4,4.3-10.2-2.1,2.4-3.5,6.4-5.5,5.3,0,0-.9,2.8-3.5,2.8,0,0-1.2,0-1.2,0-17-1.2-19.8-8.2-19.9-14.5-.1-6.7,4.4-10.9,4.4-10.9,2.7,1.6,7.9,4.1,9,10.6.3,1.8-.1,5.1-1.5,8.9-.3.8.6,1.7.6,1.7l7.9,1.7.5-1.2c-2.7-2,2.6-3.8,2.6-8.8,0-8.3,3-10.6,2.5-11.2-6.2-6.6-3-21.3,3.2-28,0,0,0,0-.4-.5,0,0-.7,0-.7,0,0,0,.2-1.2,0-1.3-.5-.5-.8-.7-.8-.6-4,2.8-4.7,4-7.8,7.9-5.8,7.3-1.1,14.1-6.4,14.5,0,0-.2,0-.3,0-9.4-2.2,1-14.1,1-14.1,0,0-6.8-17.6.7-31.9-17.4,8-25.4,28.2-25.4,30.7,0,0,5.8-2.2,10.2,1.6,2.5,2.1,3.3,5.6,3.3,8.6,0,5.5-5.1,9.8-10.5,9.8s-10.5-4-10.5-9.5,1.1-5.4,4.7-7.6c-15.5-1.9-23.1,8.2-25,10.1-4.4,4.5-5.6,10.2-4.7,17.2,1.2,9.1,7.7,17.1,15.6,17.1s2-.1,3-.4c-3.1-1.9-5.2-5.3-5.2-9.2,0-6,4.9-10.9,10.9-10.9s10.9,4.9,10.9,10.9-1.2,6.8-3.5,9.9c14.6-2.7,7.4,9.5,7.4,9.5.3,0,4.9-2.1,6.7-.3,2.4,2.4.4,4.6-1.9,8.4.9,0,1.9-.2,2.8-.2,4.1,0,7.2,1.5,0,9.8,4.9,1.1,14.8,2.3,16.2,13.2.5,3.5-2,10.2-7.6,12,3.9,1.3,7.7,2.6,10,3.3,0,5.2-3.8,5.7-10.1,5.7,3,3.1,6.9,4.4,10.5,4.4s8-3,7.9-6c0,0-.9-8-.8-9.6,0-.2,4-5.9,4.2-5,.3,1.2.4,3.3-.5,5.9s-1.8,2.6-1.8,2.7c.2,1,.9,6.5,1,6.5,4.3-1.8,5-2,5-2l1.7,1.1c0-9.7-2.4-21.6,8.5-30.4h0ZM655.6,173.7c.2,4.8.5-5.4-10.7-7.6,0,0,4.2-6.9.7-9.9-3.5-3-9.4-2.1-9.4-2.1,0,0,3.4-1.6,3.5-4.6.2-3-2.7-4.8-4.8-4.8s-4.1,1.1-4.1,1.1c0,0,5.3-5.1.9-7.3-4.4-2.1-7.1-2.1-7.1-2.1,0,0,7-.3,12.8,1.6s11.5,8.3,11.7,12.9c.2,4.6-1.5,11.6-1.5,11.6,0,0,7.7.8,14.8,12,0,0-7.1-5.4-6.9-.6h0Z" fill="#f7f0d0"/>
  <path d="M7.4,186.2l-5.3-.7c-1.2-.8-1.2-3.5.2-4.2,9.3-.8,20.8-1.3,37.2-1.3s20.2.8,27.8,5c8,4.2,13.8,11.7,13.8,23.3s-12.5,24.5-20.8,27.8c-.8,1,0,2.7.8,4,13.3,21.5,22.2,34.8,33.5,44.3,2.8,2.5,7,4.3,11.5,4.7.8.3,1,1.7.2,2.3-1.5.5-4.2.8-7.3.8-14.2,0-22.7-4.2-34.5-21-4.3-6.2-11.2-17.7-16.3-25.2-2.5-3.7-5.2-5.3-11.8-5.3s-7.8.2-7.8,3.7v21c0,17.5.3,19.5,10,20.8l3.5.5c1,.8.7,3.7-.3,4.2-7.5-.3-13.2-.5-19.8-.5s-13,.2-20.8.5c-1-.5-1.3-3-.3-4.2l4.2-.5c9.7-1.2,10-3.3,10-20.8v-59.8c0-15.8-.5-18.7-7.3-19.5h0ZM28.9,235c.5.5,3,.8,11.5.8s12.3-.7,17.2-4.3c4.5-3.5,8.3-9.3,8.3-20.7s-8.2-25.7-26.7-25.7-10.8.7-10.8,5.3v39c0,3,0,4.8.5,5.5h0Z" fill="#f7f0d0"/>
  <path d="M140.9,285.2c4.5,0,9.8-1.8,13.5-5,2.2-2,3.3-4.5,3.3-9.7v-27.3c0-10.8-1.2-11.2-6.2-13.2l-2.2-.8c-1.2-.7-1.2-3,.2-3.7,6.7-.2,15.8-1.3,19.5-3,.8.2,1.3.5,1.5,1.2-.3,3.2-.5,8.3-.5,14.5v28c0,13.2.5,18.2,5.2,18.2s4.2-.3,6.5-.8c1,.8,1.2,4.2-.2,4.8-6.5,1.3-16.2,3-21.8,6.2-.8,0-1.7-.5-2-1.2v-6.8c0-1.5-.5-2.3-1.5-2.3-5,3.2-13.2,8.7-23,8.7-14.7,0-20.2-7.3-20.2-20.8v-27.8c0-10.5,0-12-5-14.2l-2-.8c-1-.8-.8-3.2.3-3.7,7.7-.2,14.2-1.7,17.8-3,1,.2,1.5.5,1.7,1.2-.3,2.8-.5,6.3-.5,14.5v27.8c0,11.5,2.8,19.2,15.5,19.2h0Z" fill="#f7f0d0"/>
  <path d="M293.6,185.2l-2.7-.3c-1.2-1.2-1-4.2.3-4.8,6.3.3,14.2.5,21.5.5h31.8c10.7,0,20.3-.2,22.5-.5.7,2.8,1.7,16,2.7,23.2-.7,1.3-4,1.7-5.3.7-2.7-9.7-5.2-13.7-10.5-15.2-3.8-1-8.8-1.5-13.3-1.5h-11.2c-7.2,0-7.2.3-7.2,9.8v28.2c0,4.3.2,4.5,4,4.5h8c14.5,0,17-.2,18.5-7.3l1.2-5.7c1.3-1.2,4.5-1.2,5.3.2-.2,4.5-.5,10.5-.5,16.7s.3,12.2.5,17.5c-.8,1.2-4,1.2-5.3.2l-1.2-6.7c-1.2-7-4-7.3-18.5-7.3h-8c-3.8,0-4,.3-4,4.5v21.2c0,8.5.3,14.5,2.8,17.3,2,2.3,4.8,3.5,18.8,3.7,21.2.2,24.8-4.5,30.7-18,1.5-1.2,4.3-.7,5.3,1-1,7-4.7,19.7-7,24.2-7.3-.3-21.7-.5-41.2-.5h-19c-7.3,0-17.5.2-25,.5-1.3-.7-1.5-3.7-.3-4.8l6.2-.7c7.8-.8,9.3-1.3,9.3-19v-62c0-17.7-1.5-18.3-9.3-19.3h0Z" fill="#f7f0d0"/>
  <path d="M385.9,260.8c1-1.7,3.8-1.8,5.2-.7,3,8.5,12,26.3,28.3,26.3s19.8-7.7,19.8-17.8-4.5-17.2-17-24.2l-7.2-4c-12.5-7-23.5-17.2-23.5-32.2s12.3-30.5,36.7-30.5,15,2,22.8,3.5c1.8,3.7,3.5,14.7,3.5,22.5-.8,1.5-3.8,1.7-5.3.5-2.5-8.7-8.3-19.8-22.5-19.8s-18.8,8.7-18.8,17.5,4.8,14.5,15.8,20.3l10.3,5.5c10.8,5.7,22.8,16,22.8,32.8s-14.5,32.5-38.7,32.5-24-5-27.3-7c-3-3.5-5.2-15-5-25.3h0Z" fill="#f7f0d0"/>
  <path d="M530.1,293.2c-37.7,0-59.3-26.5-59.3-56.2s24.7-59.2,59.7-59.2,58.3,27.7,58.3,58-25,57.3-58.7,57.3h0ZM531.8,286.5c19,0,34.3-14.2,34.3-47.7s-11.3-54.3-37.8-54.3-34.8,12.2-34.8,47.7,9.8,54.3,38.3,54.3Z" fill="#f7f0d0"/>
</svg>